<svg xmlns="http://www.w3.org/2000/svg" xmlns:xlink="http://www.w3.org/1999/xlink" viewBox="0 0 52.3465 707.4333"><defs><style>.cls-1,.cls-3{fill:none;}.cls-2{clip-path:url(#clip-path);}.cls-3{stroke:#cb1517;stroke-width:4.488px;}</style><clipPath id="clip-path" transform="translate(0 0.0001)"><rect class="cls-1" width="52.346" height="707.433"/></clipPath></defs><g id="Layer_2" data-name="Layer 2"><g id="Header"><g class="cls-2"><path class="cls-3" d="M24,705.1891H0m24-12.05H0m24-12.05H0m24-12.05H0m24-12.051H0m24-12.05H0m24-12.05H0m24-12.05H0m24-12.05H0m24-12.05H0m24-12.051H0m24-12.05H0m24-12.05H0m24-12.05H0m24-12.05H0m24-12.05H0m24-12.05H0m24-12.05H0m24-12.051H0m24-12.05H0m24-12.05H0m24-12.05H0m24-12.05H0m24-12.05H0m24-12.05H0m24-12.051H0m24-12.05H0m24-12.05H0m24-12.05H0m24-12.05H0m24-12.05H0m24-12.051H0m24-12.05H0m24-12.05H0m24-12.05H0m24-12.05H0m24-12.05H0m24-12.05H0m24-12.05H0m24-12.051H0m24-12.05H0m24-12.05H0m24-12.05H0m24-12.05H0m24-12.05H0m24-12.05H0m24-12.051H0m24-12.05H0m24-12.05H0m24-12.05H0" transform="translate(0 0.0001)"/><path class="cls-3" d="M52.3465,592.7009h-24m24-12.05h-24m24-12.05h-24m24-12.05h-24m24-12.051h-24m24-12.05h-24m24-12.05h-24m24-12.05h-24m24-12.05h-24m24-12.05h-24m24-12.051h-24m24-12.05h-24m24-12.05h-24m24-12.05h-24m24-12.05h-24m24-12.05h-24m24-12.05h-24m24-12.05h-24m24-12.051h-24m24-12.05h-24m24-12.05h-24m24-12.05h-24m24-12.05h-24m24-12.05h-24m24-12.05h-24m24-12.051h-24m24-12.05h-24m24-12.05h-24m24-12.05h-24m24-12.05h-24m24-12.05h-24m24-12.051h-24m24-12.05h-24m24-12.05h-24m24-12.05h-24m24-12.05h-24m24-12.05h-24m24-12.05h-24m24-12.05h-24m24-12.051h-24m24-12.05h-24m24-12.05h-24m24-12.05h-24m24-12.05h-24m24-12.05h-24m24-12.05h-24m24-12.051h-24m24-12.05h-24m24-12.05h-24m24-12.05h-24" transform="translate(0 0.0001)"/></g></g></g></svg>