<?xml version="1.0" encoding="UTF-8"?> <svg xmlns="http://www.w3.org/2000/svg" id="centeli" width="55.1454" height="55.5882" viewBox="0 0 55.1454 55.5882"><defs><style>.cls-1{fill:#314160;}.cls-2{fill:#fff;}.cls-3{fill:none;stroke:#fff;stroke-linejoin:round;stroke-width:1.5882px;}</style></defs><circle id="bg" class="cls-1" cx="24.7985" cy="29.0841" r="24.7985"></circle><g id="stethascope"><path class="cls-2" d="M1276.1353,728.319a4.5664,4.5664,0,0,0-2.2443-.3406l-.5406,1.1182.2969.5313.453.1005a8.0668,8.0668,0,0,1,1.1957.1231c.1326.0732.9138-.4111.9138-.4111Z" transform="translate(-1236.7149 -700.292)"></path><path class="cls-3" d="M1269.3819,731.2828c-6.5937-.21-10.4708-4.0144-10.4708-10.6591V708.6166a5.4133,5.4133,0,0,1,5.4132-5.4132" transform="translate(-1236.7149 -700.292)"></path><path class="cls-3" d="M1277.7287,703.2034a5.4132,5.4132,0,0,1,5.4132,5.4132v12.0071c0,6.6447-3.8769,10.4492-10.4706,10.6591" transform="translate(-1236.7149 -700.292)"></path><path class="cls-3" d="M1283.1419,714.5735c0,6.7778-3.8814,10.6591-10.659,10.6591H1269.57c-6.7778,0-10.6591-3.8813-10.6591-10.6591" transform="translate(-1236.7149 -700.292)"></path><path class="cls-3" d="M1263.7681,703.2034a2.1174,2.1174,0,1,1,2.1174,2.1173A2.1173,2.1173,0,0,1,1263.7681,703.2034Z" transform="translate(-1236.7149 -700.292)"></path><circle class="cls-3" cx="39.5011" cy="2.9114" r="2.1127"></circle><polyline class="cls-3" points="32.378 30.979 32.378 28.464 36.245 28.464 36.245 33.517 32.378 33.517 32.378 30.979"></polyline><path class="cls-3" d="M1271.0265,734.1162v12.4572c0,3.673-1.6961,6.6458-4.1718,7.7362-5.5938,2.4638-11.277-1.2551-11.2656-6.6519.0173-8.2466,13.7928-7.068,24.0426-3.4134" transform="translate(-1236.7149 -700.292)"></path><path class="cls-3" d="M1278.573,746.3746a6.2466,6.2466,0,1,1,6.2465,6.2467A6.2466,6.2466,0,0,1,1278.573,746.3746Z" transform="translate(-1236.7149 -700.292)"></path><path class="cls-3" d="M1282.5134,745.4607a2.4806,2.4806,0,1,1,1.3924,3.22A2.4807,2.4807,0,0,1,1282.5134,745.4607Z" transform="translate(-1236.7149 -700.292)"></path></g></svg> 