<svg xmlns="http://www.w3.org/2000/svg" viewBox="0 0 66.4636 74.3458"><defs><style>.cls-1{fill:#ececec;}.cls-2{fill:none;stroke:#006bb2;stroke-miterlimit:10;stroke-width:2px;}.cls-3{fill:#006bb2;}</style></defs><g id="Layer_2" data-name="Layer 2"><g id="Header"><circle class="cls-1" cx="41.6651" cy="49.5474" r="24.7985"/><path class="cls-2" d="M39.793,44.877a21.0993,21.0993,0,1,1,8.9385-17.2436V44.3086H44.966v.4393l6.3572,9.9774h.4l6.3321-9.8421v-.5746H54.2318l.0351-16.6752A26.6278,26.6278,0,1,0,42.9022,49.4583"/><path class="cls-3" d="M37.4858,35.6988a6.3828,6.3828,0,0,1-2.2125,2.42,7.6867,7.6867,0,0,1-4.7958,1.4064h-12.54v-4.425a3.8985,3.8985,0,0,0,1.936-2.2146,11.502,11.502,0,0,0,.3687-3.1343H17.5692V26.2936h2.6734V24.1283q0-4.4733,2.4912-6.7082A8.9035,8.9035,0,0,1,28.91,15.184a14.5747,14.5747,0,0,1,3.55.506,6.9856,6.9856,0,0,1,3.2737,1.7987l.5981,5.394-4.5643.3687L31.17,20.2543a3.77,3.77,0,0,0-1.1534-.39,6.2624,6.2624,0,0,0-.83-.0708,2.6905,2.6905,0,0,0-2.26.9455,5.6243,5.6243,0,0,0-.7375,3.3423v2.2125h6.5v3.4581h-6.5a11.4565,11.4565,0,0,1-.4373,2.8363,4.4047,4.4047,0,0,1-2.1439,2.42H29.279A9.1378,9.1378,0,0,0,32.6214,34.5,6.9315,6.9315,0,0,0,34.95,32.9332Z"/></g></g></svg>