<?xml version="1.0" encoding="UTF-8"?> <svg xmlns="http://www.w3.org/2000/svg" viewBox="0 0 62.5893 64.8828"><defs><style>.cls-1{fill:#314160;}.cls-2{fill:none;stroke:#fff;stroke-linejoin:round;stroke-width:1.5px;}</style></defs><g id="Layer_2" data-name="Layer 2"><g id="Sectors"><circle class="cls-1" cx="37.7908" cy="40.0843" r="24.7985"></circle><path class="cls-2" d="M18.5481,43.8375c.63,2.4353,3.7185,2.9067,5.1812,2.3267l.8959-3.9048a5.37,5.37,0,0,0,3.3163.4544l.5534-5.5712"></path><path class="cls-2" d="M28.3166,12.4256,14.5133,18.7048,4.6856,31.8986.7718,33.3406.75,46.9354l11.8533-.01a6.9186,6.9186,0,0,0,5.2234-2.28l6.9777-7.4354,9.11-7.7586a3.27,3.27,0,0,0-.0113-4.7263c-1.5465-1.7847-3.2284-1.8576-4.47-.9049L20.3,31.4311l.1742-7.8s4.9483-2.7043,5.73-3.1255"></path><polyline class="cls-2" points="48.883 9.682 49.941 5.638 31.249 0.75 24.09 28.131"></polyline><polyline class="cls-2" points="27.234 25.653 34.924 4.919 53.039 11.636 41.734 42.118 25.99 36.201"></polyline><path class="cls-2" d="M32.9652,23.8565a5.3676,5.3676,0,1,1,1.9175,3.7865"></path><path class="cls-2" d="M39.7954,6.7255A5.1967,5.1967,0,0,1,33.1175,9.791"></path><path class="cls-2" d="M48.3033,9.88a5.1969,5.1969,0,0,0,3.0655,6.6787"></path><path class="cls-2" d="M36.8667,40.2794a5.1969,5.1969,0,0,1,6.6788-3.0647"></path></g></g></svg> 