<?xml version="1.0" encoding="UTF-8"?> <svg xmlns="http://www.w3.org/2000/svg" viewBox="0 0 63.5133 51.8209"><defs><style>.cls-1{fill:#314160;}.cls-2{fill:#fff;}</style></defs><g id="Layer_2" data-name="Layer 2"><g id="Sectors"><circle class="cls-1" cx="38.7148" cy="24.7985" r="24.7985"></circle><path class="cls-2" d="M48.875,8.0709h-46A2.8787,2.8787,0,0,0,0,10.9459v32a2.8786,2.8786,0,0,0,2.875,2.875H19.8418l-.709,4.25H16.875a.875.875,0,1,0,0,1.75h18a.875.875,0,0,0,0-1.75H32.6162l-.709-4.25H48.875a2.8786,2.8786,0,0,0,2.875-2.875v-32A2.8787,2.8787,0,0,0,48.875,8.0709Zm-27.9678,42,.709-4.25h8.5166l.709,4.25ZM50,42.9459a1.1265,1.1265,0,0,1-1.125,1.125h-46a1.1265,1.1265,0,0,1-1.125-1.125v-3.125H50Zm0-4.875H1.75V10.9459a1.1266,1.1266,0,0,1,1.125-1.125h46A1.1266,1.1266,0,0,1,50,10.9459Z"></path><path class="cls-2" d="M18,33.9459a1.875,1.875,0,1,0,1.875-1.875A1.8767,1.8767,0,0,0,18,33.9459Zm1.8746,0H19.88v0h0V33.945h0l-.0049-.125.01.0009v.25l-.0049-.1245h0v0Z"></path><path class="cls-2" d="M28,33.9459a1.875,1.875,0,1,0,1.875-1.875A1.8767,1.8767,0,0,0,28,33.9459Zm1.8746,0H29.88v0h0V33.945h0l-.0049-.125.01.0009v.25l-.0049-.1245h0v0Z"></path><path class="cls-2" d="M29.7949,26.6315l.1636-.5606H18.4814l-2.3437-6.25H28.875a.875.875,0,0,0,0-1.75h-14a.8749.8749,0,0,0-.8193,1.1827l3,8a.88.88,0,0,0,.8193.5673H30.1678a1.1252,1.1252,0,0,1-.3729-1.1894Z"></path><path class="cls-2" d="M31.3635,27.944a1.1179,1.1179,0,0,1-.4885,2.1269h-12a.875.875,0,0,0,0,1.75h12a2.8653,2.8653,0,0,0,1.3279-5.4094l-.2478.85A1.1159,1.1159,0,0,1,31.3635,27.944Z"></path><path class="cls-2" d="M32.0466,26.0534l2.9846-10.2325H36.875a.875.875,0,0,0,0-1.75h-2.5a.8789.8789,0,0,0-.84.6309L30.292,25.8209h.583A3.0994,3.0994,0,0,1,32.0466,26.0534Z"></path><path class="cls-2" d="M30.2192,26.0709l-.184.6309a.8747.8747,0,0,0,1.68.4893l.2623-.8987a2.8531,2.8531,0,0,0-1.1021-.2215Z"></path><path class="cls-2" d="M32.0117,26.1732l.0349-.12a3.0994,3.0994,0,0,0-1.1716-.2325h-.583l-.0365.1255h.6191A2.98,2.98,0,0,1,32.0117,26.1732Z"></path><path class="cls-2" d="M30.875,26.0709a2.8531,2.8531,0,0,1,1.1021.2215l.0346-.1192a2.98,2.98,0,0,0-1.1371-.2268h-.6191l-.0363.1245Z"></path><path class="cls-2" d="M32.2029,26.4115a4.5667,4.5667,0,0,0-2.2444-.3406l-.5405,1.1182.2968.5313.453.1005a8.0655,8.0655,0,0,1,1.1957.1231c.1326.0732.9138-.4111.9138-.4111Z"></path></g></g></svg> 