<?xml version="1.0" encoding="UTF-8"?> <svg xmlns="http://www.w3.org/2000/svg" viewBox="0 0 87.4347 49.597"><defs><style>.cls-1{fill:#314160;}.cls-2{fill:none;stroke:#fff;stroke-linecap:round;stroke-linejoin:round;stroke-width:1.5px;}</style></defs><g id="Layer_2" data-name="Layer 2"><g id="Sectors"><circle class="cls-1" cx="34.1847" cy="24.7985" r="24.7985"></circle><path class="cls-2" d="M8.3329,39.0425H8.3285a12.8253,12.8253,0,0,1-3.24-.8637l-2.1264-.8769A3.6327,3.6327,0,0,1,1.48,36.1577,3.7612,3.7612,0,0,1,.8664,32.97L1.84,28.8928h0a29.4664,29.4664,0,0,1,16.3021-5.7669c.2707-.0113.5189-.02.74-.0247a26.0682,26.0682,0,0,0,9.06-2.7306C47.1656,9.2858,66.39,10.1851,80.9281,19.585a10.2561,10.2561,0,0,1,3.3452,3.3628,6.9848,6.9848,0,0,1,.9865,3.5688v3.4855a.734.734,0,0,0,.7146.75.73.73,0,0,1,.71.7454v.46a7.0369,7.0369,0,0,1-6.8615,7.199h-.85"></path><polyline class="cls-2" points="22.2 39.156 56.301 39.156 65.153 39.156"></polyline><circle class="cls-2" cx="15.2916" cy="36.1506" r="7.537"></circle><circle class="cls-2" cx="72.0619" cy="36.1506" r="7.537"></circle><path class="cls-2" d="M84.2733,22.9478H79.9241v.18a2.2579,2.2579,0,0,0,1.5476,2.144L85.26,26.5166"></path><path class="cls-2" d="M1.8836,28.8622l3.4812-.1666a4.0574,4.0574,0,0,0,3.2794-1.9379,5.5342,5.5342,0,0,1,2.3368-2.4289"></path><path class="cls-2" d="M31.4081,23.6352a129.5548,129.5548,0,0,0,19.9956-1.3811,58.4854,58.4854,0,0,1,18.3011,0"></path><line class="cls-2" x1="52.9842" y1="14.8541" x2="52.9842" y2="22.0086"></line></g></g></svg> 