<svg xmlns="http://www.w3.org/2000/svg" viewBox="0 0 65.9147 60.3248"><defs><style>.cls-1{fill:#ececec;}.cls-2{fill:#006bb2;}</style></defs><g id="Layer_2" data-name="Layer 2"><g id="Header"><circle class="cls-1" cx="41.1162" cy="24.7985" r="24.7985"/><path class="cls-2" d="M52.72,21.7935a1.17,1.17,0,0,0-1.0722-.7064,1.19,1.19,0,0,0-.4758.1005,1.1751,1.1751,0,0,0-.6061,1.5487A25.0606,25.0606,0,1,1,37.603,9.7647a1.1445,1.1445,0,0,0,.468.0993A1.1775,1.1775,0,0,0,39.15,9.157a1.1748,1.1748,0,0,0-.6066-1.5476A27.4207,27.4207,0,1,0,52.72,21.7935Z"/><path class="cls-2" d="M27.562,60.3248A27.5609,27.5609,0,1,1,38.59,7.4985a1.2963,1.2963,0,1,1-1.0344,2.3774,24.9443,24.9443,0,1,0,12.9,12.9086,1.2962,1.2962,0,1,1,2.3753-1.0386h0A27.5743,27.5743,0,0,1,27.562,60.3248Zm0-54.88A27.2923,27.2923,0,1,0,52.61,21.8409a1.0677,1.0677,0,0,0-1.3906-.5442,1.0594,1.0594,0,0,0-.5441,1.3928A25.1914,25.1914,0,1,1,37.65,9.6556a1.0412,1.0412,0,0,0,.4211.0864,1.0568,1.0568,0,0,0,.9674-.6327,1.038,1.038,0,0,0,.0173-.8076,1.0546,1.0546,0,0,0-.5614-.583A27.1166,27.1166,0,0,0,27.562,5.4449Z"/><path class="cls-2" d="M34.574,17.8915a1.1782,1.1782,0,0,0,.4641-2.2576,18.6782,18.6782,0,1,0,9.6548,9.66,1.1758,1.1758,0,1,0-2.1547.9421,16.1885,16.1885,0,0,1,1.3563,6.5275A16.3156,16.3156,0,1,1,34.0987,17.79,1.1665,1.1665,0,0,0,34.574,17.8915Z"/><path class="cls-2" d="M27.562,51.5708a18.8069,18.8069,0,0,1,0-37.6137,18.64,18.64,0,0,1,7.5231,1.5677,1.2926,1.2926,0,0,1,.6694,1.7037,1.2929,1.2929,0,0,1-1.1811.7838,1.3078,1.3078,0,0,1-.5226-.1122,16.1982,16.1982,0,1,0,8.3783,8.3847,1.283,1.283,0,0,1-.0216-.9911,1.2944,1.2944,0,0,1,2.3947-.0475,18.6149,18.6149,0,0,1,1.5656,7.5167A18.828,18.828,0,0,1,27.562,51.5708Zm0-37.3719a18.5651,18.5651,0,1,0,18.5639,18.564,18.3879,18.3879,0,0,0-1.5439-7.4217,1.0531,1.0531,0,0,0-.9631-.6327,1.0837,1.0837,0,0,0-.4276.0885,1.0564,1.0564,0,0,0-.542,1.3928,16.4435,16.4435,0,1,1-8.5035-8.51,1.06,1.06,0,0,0,1.3885-.5463,1.0478,1.0478,0,0,0,.0151-.8076,1.0331,1.0331,0,0,0-.5593-.5809A18.4051,18.4051,0,0,0,27.562,14.1989Z"/><path class="cls-2" d="M27.5616,25.1852a7.5288,7.5288,0,0,1,1.5189.1522,1.177,1.177,0,0,0,.4654-2.3075A9.9285,9.9285,0,1,0,37.29,30.765a1.1758,1.1758,0,0,0-2.3037.472,7.6991,7.6991,0,0,1,.1534,1.5268,7.5783,7.5783,0,1,1-7.5783-7.5786Z"/><path class="cls-2" d="M27.562,42.8146a10.0518,10.0518,0,1,1,0-20.1035,10.2359,10.2359,0,0,1,2.0082.2008,1.2977,1.2977,0,0,1-.2548,2.57,1.1034,1.1034,0,0,1-.2613-.028A7.4494,7.4494,0,1,0,34.867,31.26,1.3022,1.3022,0,0,1,35.88,29.7311a1.393,1.393,0,0,1,.2526-.0259,1.3043,1.3043,0,0,1,1.2762,1.0365A10.0526,10.0526,0,0,1,27.562,42.8146Zm0-19.8617a9.8111,9.8111,0,1,0,9.6091,7.8363,1.0553,1.0553,0,0,0-1.9132-.3714,1.0438,1.0438,0,0,0-.1533.7947,7.9976,7.9976,0,0,1,.1554,1.55,7.6992,7.6992,0,1,1-7.698-7.6981,7.4929,7.4929,0,0,1,1.5417.1555,1.09,1.09,0,0,0,.2117.0194,1.0557,1.0557,0,0,0,.2073-2.09A9.7589,9.7589,0,0,0,27.562,22.9529Z"/><path class="cls-2" d="M38.733,13.0547a1.1675,1.1675,0,0,0-.0912.4488v6.2784a.5727.5727,0,0,1-.1684.4063L26.73,31.9319a1.1761,1.1761,0,1,0,1.6634,1.6632L40.1368,21.852a.575.575,0,0,1,.4062-.1687h6.2787a1.2031,1.2031,0,0,0,.8342-.3465l6.9992-7a1.1638,1.1638,0,0,0,.255-.3837,1.1742,1.1742,0,0,0-.6364-1.5347,1.1641,1.1641,0,0,0-.4482-.0908H48.5727a.575.575,0,0,1-.5747-.5749V6.5a1.1836,1.1836,0,0,0-.7268-1.0853,1.1837,1.1837,0,0,0-1.2837.2558l-7,7.0007A1.1681,1.1681,0,0,0,38.733,13.0547Zm2.2613,1.1742a.5724.5724,0,0,1,.1684-.4062l3.5019-3.5019a.5743.5743,0,0,1,.9808.4062v2.7765A1.1781,1.1781,0,0,0,46.8217,14.68h2.7768a.5743.5743,0,0,1,.4063.9805l-3.5019,3.5019a.5738.5738,0,0,1-.4062.168H41.5689a.5744.5744,0,0,1-.5746-.5743Z"/><path class="cls-2" d="M27.562,34.0606a1.2821,1.2821,0,0,1-.9156-.3822,1.2954,1.2954,0,0,1,0-1.8311L38.3889,20.1047a.4629.4629,0,0,0,.1318-.3217V13.5036a1.2736,1.2736,0,0,1,.1015-.4945V13.007a1.2845,1.2845,0,0,1,.2807-.4211l7.0006-7.0006a1.2714,1.2714,0,0,1,.4232-.2807,1.3274,1.3274,0,0,1,.989-.0022,1.3064,1.3064,0,0,1,.7018.7018,1.2856,1.2856,0,0,1,.1015.4966v5.2516a.4533.4533,0,0,0,.4534.4534h5.2537a1.2571,1.2571,0,0,1,.4924.1015,1.2945,1.2945,0,0,1,.7018,1.6908,1.2293,1.2293,0,0,1-.2807.4232L47.7411,21.422a1.3042,1.3042,0,0,1-.4254.2807,1.2754,1.2754,0,0,1-.4945.1015H40.544a.461.461,0,0,0-.3239.1317L28.4775,33.6784A1.2819,1.2819,0,0,1,27.562,34.0606ZM38.8424,13.1a1.06,1.06,0,0,0-.08.4038V19.783a.6971.6971,0,0,1-.2051.49L26.8148,32.0157a1.0609,1.0609,0,0,0,0,1.4943,1.0857,1.0857,0,0,0,1.4943,0L40.0516,21.7674a.6894.6894,0,0,1,.4924-.2051h6.2772a1.06,1.06,0,0,0,.4038-.08,1.1,1.1,0,0,0,.3477-.231l6.9984-6.9985a1.1075,1.1075,0,0,0,.2289-.3455,1.0562,1.0562,0,0,0-.5722-1.38,1.0412,1.0412,0,0,0-.4017-.08H48.5724a.6976.6976,0,0,1-.6953-.6953V6.5008a1.0619,1.0619,0,0,0-.08-.4059,1.0786,1.0786,0,0,0-.5722-.57,1.0671,1.0671,0,0,0-.8076.0022,1.08,1.08,0,0,0-.3455.2267l-7.0006,7.0006A1.1483,1.1483,0,0,0,38.8424,13.1Zm7.2533,6.3528H41.57a.6976.6976,0,0,1-.6953-.6953V14.2292a.6943.6943,0,0,1,.2051-.4924l3.5-3.5a.7034.7034,0,0,1,.7579-.1511.69.69,0,0,1,.4276.6413v2.7769A1.0561,1.0561,0,0,0,46.8212,14.56h2.7769a.6943.6943,0,0,1,.49,1.1855l-3.5,3.5025A.6892.6892,0,0,1,46.0957,19.4526ZM45.07,10.2732a.46.46,0,0,0-.3218.1317l-3.5,3.5025a.4559.4559,0,0,0-.1317.3218v4.5281a.4535.4535,0,0,0,.4535.4535h4.526a.461.461,0,0,0,.3239-.1317l3.5-3.5025a.4606.4606,0,0,0,.0993-.4967.4521.4521,0,0,0-.4211-.2785H46.8212a1.3,1.3,0,0,1-1.2978-1.2978V10.7267a.4522.4522,0,0,0-.2785-.4211A.4666.4666,0,0,0,45.07,10.2732Z"/></g></g></svg>