<svg xmlns="http://www.w3.org/2000/svg" viewBox="0 0 25.3913 25.3913"><defs><style>.cls-1{fill:none;stroke:#1f2644;stroke-linecap:round;stroke-linejoin:round;}</style></defs><g id="Layer_2" data-name="Layer 2"><g id="Header"><path class="cls-1" d="M4.072,21.3193,1.4463,23.945a.5543.5543,0,0,0,.392.9463H12.6956a12.1956,12.1956,0,1,0-8.6236-3.572Z"/><path class="cls-1" d="M11.6352,11.6352A2.3861,2.3861,0,1,0,9.249,14.0213,1.5907,1.5907,0,0,1,7.6583,15.612v.53h.7954a3.1815,3.1815,0,0,0,3.1815-3.1815Z"/><path class="cls-1" d="M18.5283,11.6352a2.3861,2.3861,0,1,0-2.3861,2.3861,1.5907,1.5907,0,0,1-1.5907,1.5907v.53h.7954a3.1815,3.1815,0,0,0,3.1814-3.1815Z"/></g></g></svg>