<?xml version="1.0" encoding="UTF-8"?> <svg xmlns="http://www.w3.org/2000/svg" viewBox="0 0 69.7083 51.5"><defs><style>.cls-1{fill:#314160;}.cls-2{fill:none;stroke:#fff;stroke-linecap:round;stroke-linejoin:round;stroke-width:1.5px;}</style></defs><g id="Layer_2" data-name="Layer 2"><g id="Sectors"><circle class="cls-1" cx="24.7985" cy="25.5368" r="24.7985"></circle><polygon class="cls-2" points="30.958 5.725 29.104 6.75 29.458 4.577 27.958 3.042 30.03 2.725 30.958 0.75 31.887 2.725 33.958 3.042 32.458 4.577 32.812 6.75 30.958 5.725"></polygon><polygon class="cls-2" points="40.958 5.725 39.104 6.75 39.458 4.577 37.958 3.042 40.03 2.725 40.958 0.75 41.887 2.725 43.958 3.042 42.458 4.577 42.812 6.75 40.958 5.725"></polygon><polygon class="cls-2" points="50.958 5.725 49.104 6.75 49.458 4.577 47.958 3.042 50.03 2.725 50.958 0.75 51.887 2.725 53.958 3.042 52.458 4.577 52.812 6.75 50.958 5.725"></polygon><polygon class="cls-2" points="60.958 5.725 59.104 6.75 59.458 4.577 57.958 3.042 60.03 2.725 60.958 0.75 61.887 2.725 63.958 3.042 62.458 4.577 62.812 6.75 60.958 5.725"></polygon><polyline class="cls-2" points="34.958 50.75 34.958 10.75 56.958 10.75 56.958 50.75"></polyline><polyline class="cls-2" points="56.958 16.75 68.958 16.75 68.958 44.75"></polyline><polyline class="cls-2" points="22.958 44.75 22.958 16.75 34.958 16.75"></polyline><line class="cls-2" x1="40.9583" y1="16.75" x2="50.9583" y2="16.75"></line><line class="cls-2" x1="26.9583" y1="22.75" x2="30.9583" y2="22.75"></line><line class="cls-2" x1="26.9583" y1="28.75" x2="30.9583" y2="28.75"></line><line class="cls-2" x1="26.9583" y1="34.75" x2="30.9583" y2="34.75"></line><line class="cls-2" x1="26.9583" y1="40.75" x2="30.9583" y2="40.75"></line><line class="cls-2" x1="60.9583" y1="22.75" x2="64.9583" y2="22.75"></line><line class="cls-2" x1="60.9583" y1="28.75" x2="64.9583" y2="28.75"></line><line class="cls-2" x1="60.9583" y1="34.75" x2="64.9583" y2="34.75"></line><line class="cls-2" x1="60.9583" y1="40.75" x2="64.9583" y2="40.75"></line><line class="cls-2" x1="40.9583" y1="22.75" x2="50.9583" y2="22.75"></line><line class="cls-2" x1="40.9583" y1="28.75" x2="50.9583" y2="28.75"></line><line class="cls-2" x1="40.9583" y1="34.75" x2="50.9583" y2="34.75"></line><line class="cls-2" x1="34.9583" y1="40.75" x2="56.9583" y2="40.75"></line><polyline class="cls-2" points="42.958 50.75 42.958 46.75 48.958 46.75 48.958 50.75"></polyline></g></g></svg> 