<svg xmlns="http://www.w3.org/2000/svg" viewBox="0 0 65.3849 60.9071"><defs><style>.cls-1{fill:#ececec;}.cls-2{fill:#006bb2;}</style></defs><g id="Layer_2" data-name="Layer 2"><g id="Header"><circle class="cls-1" cx="24.7985" cy="24.7985" r="24.7985"/><path class="cls-2" d="M41.7123,7.7774a3.365,3.365,0,1,0-3.3025,3.982,3.3715,3.3715,0,0,0,3.1009-2.0208,24.65,24.65,0,1,1-27.928,24.4423,24.37,24.37,0,0,1,3.3408-12.3344l1.9434,1.316A1.4073,1.4073,0,0,0,21.066,22.16l.6079-7.0646a1.4,1.4,0,0,0-1.9967-1.3519L13.08,16.7519a1.3459,1.3459,0,0,0-.2026,2.3548L15.2736,20.73a26.3085,26.3085,0,0,0-3.6907,13.4514A26.8444,26.8444,0,1,0,41.7123,7.7774Z"/><path class="cls-2" d="M38.4264,60.9071A26.8743,26.8743,0,0,1,11.468,34.181,26.5258,26.5258,0,0,1,15.12,20.7634l-2.3069-1.5625a1.4488,1.4488,0,0,1-.6476-1.3344,1.4663,1.4663,0,0,1,.8676-1.2192l6.5978-3.01a1.5472,1.5472,0,0,1,1.5358.146,1.452,1.452,0,0,1,.6209,1.322L21.1785,22.17a1.465,1.465,0,0,1-.8429,1.2027,1.5359,1.5359,0,0,1-1.5318-.1151L16.96,22.0094A24.3533,24.3533,0,0,0,13.6988,34.181,24.7285,24.7285,0,1,0,41.58,9.8625,3.4728,3.4728,0,1,1,38.41,5a3.4836,3.4836,0,0,1,3.3965,2.6749,26.7087,26.7087,0,0,1-3.38,53.2322ZM20.2739,13.7257a1.2993,1.2993,0,0,0-.549.1213l-6.5977,3.01a1.2315,1.2315,0,0,0-.1871,2.1547l2.4878,1.6818-.0555.0926A26.3065,26.3065,0,0,0,11.6983,34.181a26.7292,26.7292,0,1,0,29.9992-26.29l-.08-.01-.0186-.08A3.2494,3.2494,0,1,0,38.41,11.645a3.2548,3.2548,0,0,0,2.9956-1.9511l.0329-.0782.0863.01A24.7649,24.7649,0,1,1,13.4685,34.181a24.58,24.58,0,0,1,3.3554-12.3916l.0617-.1049,2.0457,1.3837a1.3085,1.3085,0,0,0,1.3056.0967,1.2408,1.2408,0,0,0,.7155-1.0157l.6086-7.0645a1.2311,1.2311,0,0,0-.5264-1.1143A1.3137,1.3137,0,0,0,20.2739,13.7257Z"/><rect class="cls-2" x="37.309" y="15.4873" width="1.9258" height="3.7961"/><path class="cls-2" d="M39.35,19.3983H37.1949V15.3726H39.35Zm-1.9245-.23h1.6942V15.6029H37.4251Z"/><rect class="cls-2" x="18.0515" y="34.4684" width="3.8515" height="1.8981"/><path class="cls-2" d="M22.0174,36.4817H17.9362v-2.128h4.0812Zm-3.8509-.23h3.6206V34.584H18.1665Z"/><rect class="cls-2" x="37.309" y="51.5513" width="1.9258" height="3.7962"/><path class="cls-2" d="M39.35,55.4628H37.1949V51.4371H39.35Zm-1.9245-.23h1.6942V51.6674H37.4251Z"/><polygon class="cls-2" points="30.21 20.508 29.047 18.521 28.039 19.095 29.203 21.081 30.21 20.508"/><path class="cls-2" d="M29.162,21.2343l-.0575-.0967-1.2234-2.0848,1.2069-.6887,1.2809,2.1876-.1028.0555Zm-.9642-2.0992,1.0465,1.7908.808-.4606-1.0465-1.7887Z"/><polygon class="cls-2" points="23.145 27.471 23.727 26.478 21.712 25.331 21.13 26.325 23.145 27.471"/><path class="cls-2" d="M23.1852,27.6285l-.0987-.0576-2.1156-1.2048.06-.0987.6394-1.0917.0987.0575,2.1156,1.2048-.06.0987Zm-1.8977-1.3447L23.103,27.316l.4646-.7957-1.8154-1.0321Z"/><polygon class="cls-2" points="23.727 44.357 23.145 43.364 21.13 44.51 21.712 45.503 23.727 44.357"/><path class="cls-2" d="M21.67,45.66l-.699-1.19,2.2143-1.2624.699,1.19Zm-.3824-1.1082.4647.7957,1.8154-1.0321-.4646-.7957Z"/><polygon class="cls-2" points="30.21 50.327 29.203 49.754 28.039 51.74 29.047 52.313 30.21 50.327"/><path class="cls-2" d="M29.088,52.4692l-1.2069-.6887.06-.0987L29.162,49.597l1.2069.6887-.06.0987Zm-.89-.771.808.4585,1.0465-1.7887-.808-.4585Z"/><polygon class="cls-2" points="47.497 52.313 48.505 51.74 47.341 49.754 46.334 50.327 47.497 52.313"/><path class="cls-2" d="M47.4564,52.4692l-1.2809-2.1835,1.2069-.6887,1.2809,2.1835Zm-.9642-2.1012,1.0465,1.7887.808-.4585L47.3,49.91Z"/><polygon class="cls-2" points="54.832 45.503 55.414 44.51 53.399 43.364 52.817 44.357 54.832 45.503"/><path class="cls-2" d="M54.8725,45.66l-.0987-.0576-2.1157-1.2048.06-.0987.6394-1.0917.0987.0575,2.1156,1.2049-.06.0987Zm-1.8977-1.3446L54.79,45.3472l.4647-.7957-1.8155-1.0321Z"/><polygon class="cls-2" points="52.817 26.478 53.399 27.471 55.414 26.325 54.832 25.331 52.817 26.478"/><path class="cls-2" d="M53.3572,27.6285l-.6991-1.19,2.2144-1.2623.699,1.19ZM52.9748,26.52l.4646.7957,1.8155-1.0322-.4647-.7956Z"/><polygon class="cls-2" points="48.505 19.095 47.497 18.521 46.334 20.508 47.341 21.081 48.505 19.095"/><path class="cls-2" d="M47.3824,21.2343l-1.2069-.6826,1.2809-2.1876,1.2069.6887-.06.0987Zm-.89-.769.808.4606,1.0465-1.7908-.808-.4585Z"/><rect class="cls-2" x="54.6408" y="34.4684" width="3.8515" height="1.8981"/><path class="cls-2" d="M58.6082,36.4817H54.525v-2.128h4.0832Zm-3.8529-.23H58.378V34.584H54.7553Z"/><path class="cls-2" d="M33.39,43.1723a1.0025,1.0025,0,0,0,.8154-.4139l3.6579-5.0623a2.3258,2.3258,0,0,0,2.7028-2.3433A2.367,2.367,0,0,0,39.1585,33.2V21.8932a1,1,0,0,0-2,0V33.2a2.3669,2.3669,0,0,0-1.4074,2.1525,2.3354,2.3354,0,0,0,.4025,1.311l-3.5777,4.9511a.976.976,0,0,0,.2344,1.3744A1.0076,1.0076,0,0,0,33.39,43.1723Z"/><path class="cls-2" d="M33.3892,43.2871a1.11,1.11,0,0,1-.6435-.2056,1.0831,1.0831,0,0,1-.4544-.7135,1.0944,1.0944,0,0,1,.1932-.82l3.53-4.8872a2.4515,2.4515,0,0,1-.3783-1.3076,2.49,2.49,0,0,1,1.4063-2.2246V21.8922a1.1155,1.1155,0,0,1,2.2308,0V33.1283a2.4783,2.4783,0,0,1-1.1144,4.7124,1.9114,1.9114,0,0,1-.22-.0185l-.0226-.0041-3.6186,5.0084A1.1265,1.1265,0,0,1,33.3892,43.2871Zm4.77-22.2646a.8789.8789,0,0,0-.8861.87V33.2743l-.0678.0308a2.2549,2.2549,0,0,0-1.3385,2.0478,2.216,2.216,0,0,0,.3824,1.248l.0452.0658-.0473.0658L32.67,41.6834a.8571.8571,0,0,0,.2076,1.211.8763.8763,0,0,0,.512.1624.8912.8912,0,0,0,.7237-.366L37.81,37.5755l.1583.0185a1.4732,1.4732,0,0,0,.1912.0164,2.2492,2.2492,0,0,0,.952-4.3053l-.0679-.0308V21.8922A.8784.8784,0,0,0,38.1591,21.0225Z"/></g></g></svg>