<svg id="Layer_1" data-name="Layer 1" xmlns="http://www.w3.org/2000/svg" xmlns:xlink="http://www.w3.org/1999/xlink" viewBox="0 0 559.4209 698.3718"><defs><style>.cls-1{fill:#453a27;}.cls-2{fill:#4555a0;}.cls-3{fill:#1f3c89;}.cls-4{fill:#ab1511;}.cls-5{fill:#f7bfaf;}.cls-6{fill:#cb1517;}.cls-7{fill:#372e1d;}.cls-25,.cls-8{fill:#fff;}.cls-9{fill:#8b4e98;}.cls-10{fill:#131d31;}.cls-11{fill:#a1b2dc;}.cls-12{fill:#d9e0f2;}.cls-13{fill:#c6d1ec;}.cls-14,.cls-17,.cls-26,.cls-31,.cls-32,.cls-33,.cls-34,.cls-44{fill:none;stroke-linecap:round;stroke-linejoin:round;}.cls-14,.cls-17{stroke:#3354a0;}.cls-14{stroke-width:10.6264px;}.cls-15{fill:#a6b9e0;}.cls-16{fill:#7e92ca;}.cls-17{stroke-width:16.5298px;}.cls-18{fill:#7f90c8;}.cls-19{fill:#94a3d3;}.cls-20{fill:#3f60a9;}.cls-21{fill:#4e6eb3;}.cls-22{fill:#3f4998;}.cls-23{fill:#6ac5df;}.cls-24{fill:#32b3cb;}.cls-25{opacity:0.51;}.cls-25,.cls-40{isolation:isolate;}.cls-26{stroke:#424696;stroke-width:1.1807px;}.cls-27{fill:#d84f51;}.cls-28{fill:#9ad5eb;}.cls-29{fill:#c5d0eb;}.cls-30{fill:#4261aa;}.cls-31,.cls-32{stroke:#314898;}.cls-31{stroke-width:0.8193px;}.cls-32{stroke-width:0.7974px;}.cls-33,.cls-34,.cls-44{stroke:#fff;}.cls-33{stroke-width:1.4277px;}.cls-34{stroke-width:1.3894px;}.cls-35{fill:#09538a;}.cls-36{fill:#6b91ca;}.cls-37{fill:#006bb2;}.cls-38{fill:#f9d0d5;}.cls-39{fill:#5bbec2;}.cls-40{fill:#cfdef0;}.cls-41{fill:#37519e;}.cls-42{fill:#6580bf;}.cls-43{fill:#5976b8;}.cls-44{stroke-width:1.2508px;}.cls-45{fill:#f1bc95;}.cls-46{fill:#94a8d5;}.cls-47{fill:#e1b08c;}.cls-48{fill:url(#radial-gradient);}.cls-49,.cls-50,.cls-51,.cls-53{fill-rule:evenodd;}.cls-49{fill:url(#linear-gradient);}.cls-50{fill:#12100b;}.cls-51{fill:#df0914;}.cls-52{opacity:0.68;}.cls-53{fill:#0d3c61;}</style><radialGradient id="radial-gradient" cx="220.654" cy="61.2038" r="9.8498" gradientTransform="matrix(-0.1748, -0.9846, -1.3071, 0.2321, 614.2941, 404.9641)" gradientUnits="userSpaceOnUse"><stop offset="0" stop-color="#fff"/><stop offset="1" stop-color="#fff"/></radialGradient><linearGradient id="linear-gradient" x1="495.1119" y1="487.3846" x2="495.2872" y2="513.2368" gradientTransform="matrix(1, 0, 0, -1, 0, 698)" gradientUnits="userSpaceOnUse"><stop offset="0" stop-color="#0b253a"/><stop offset="1" stop-color="#80a3d6"/></linearGradient></defs><g id="Layer_2" data-name="Layer 2"><g id="Header"><path class="cls-1" d="M311.9818,137.194c-.6225-1.5407-49.6148-11.695-46.435-23.5153s8.8256-11.4977,8.8256-11.4977l41.5324,28.2942Z" transform="translate(-0.0004 0)"/><path class="cls-1" d="M307.5178,134.3671l.74-1.8441a6.6441,6.6441,0,0,1,8.64-3.6925h0l6.9588,2.7917a6.6439,6.6439,0,0,1,3.6923,8.64l-.74,1.8443a6.644,6.644,0,0,1-8.64,3.6924h0l-6.9588-2.7917a6.6437,6.6437,0,0,1-3.6923-8.64h0Z" transform="translate(-0.0004 0)"/><path class="cls-2" d="M190.4658,28.93c-4.851,5.6114-9.2337,12.7227-13.7358,19.3687-3.3962,5.0133-4.8216,11.5489-7.127,17.4267a27.81,27.81,0,0,1-5.225,8.7894c-3.745,3.971-5.3969,10.1948-4.5179,16.19.9455,6.4487,2.8493,16.3925,4.5972,25.1,2.315,11.5339,14.0347,16.0707,20.9417,7.7992a10.6311,10.6311,0,0,0,1.29-1.904c2.8873-5.5693,4.4955-4.0175,7.4216-9.3766,5.1784-9.4839,17.2635-16.99,26.5737-17.0295,8.1694-.0348,15.5077-4.331,22.331-9.6858,5.1346-4.03,10.155-13.3673,11.0087-20.7867.9466-8.2258,4.0046-17.0756,2.4869-25.1572-1.4761-7.86-10.4073-16.4363-12.4089-24.1208-.954-3.6621-16.3333-12.3308-21.1035-12.0123-1.525.1019,14.0219,6.6722,12.6539,7.5013l-2.5167,1.5253c-7.1732,4.3474-11.7939-13.879-19.4012-11.16C200.31,6.1949,200.6772,17.1175,190.4658,28.93Z" transform="translate(-0.0004 0)"/><path class="cls-3" d="M243.8105,37.8064l2.01,23.911L182.1,126.43s-16.8239-14.8761,0-47.73,32.7565-39.8887,33.5-38.8838S243.8105,37.8064,243.8105,37.8064Z" transform="translate(-0.0004 0)"/><path class="cls-4" d="M282.9405,107.6989s-14.7924-33.11-27.153-47.7036c0,0-9.19-10.8121-16.3646-6.9975s9.7878,37.2835,9.7878,37.2835,6.9825,17.1911,18.57,29.4058C274.7959,127.0828,282.9405,107.6989,282.9405,107.6989Z" transform="translate(-0.0004 0)"/><path class="cls-3" d="M256.51,366.0189l-22.5666-16.4432c-2.8624-1.12-8.8773-.8627-12.8176.2823a3.909,3.909,0,0,0-2.7628,4.0727l.3073,3.9656c.2449,5.7334.8751,6.4734,4.6532,7.9512l22.4339,8.7755c3.778,1.4779,9.1134.8911,11.8566-1.3039l.7774-.6222C261.1348,370.5019,260.2881,367.4968,256.51,366.0189Z" transform="translate(-0.0004 0)"/><path class="cls-5" d="M219.3252,351.768c.225,6.2927,11.1679,7.3861,14.7984,2.5513,14.854-60.6469,17.3189-117.49,20.1574-180.565l-37.4684-29.96C221.0417,219.7412,228.445,293.8458,219.3252,351.768Z" transform="translate(-0.0004 0)"/><path class="cls-3" d="M194.4676,162.97l-5.4393,104.8376s25.0841,38.6309,73.7867-1.215l-2.6813-100.18Z" transform="translate(-0.0004 0)"/><path class="cls-6" d="M259.9049,164.961c1.1145-14.1387-4.21-24.1285-3.8674-40.6524.1813-8.7479,12.6013-17.0076,13.3229-26.243,1.7779-14.3915-18.3945-37.1188-33.4494-48.441l-6.5753,2.0361a45.6347,45.6347,0,0,0-9.0245,3.9061c-30.4917,17.3147-36.7628,21.0307-34.64,39.57.3467,9.5954,5.4377-.7882,7.0839,5.4485,3.159,11.9676,4.3806,42.1672.04,63.9683a11.3052,11.3052,0,0,0,4.4793,11.5278C213.2154,187.2084,254.3113,178.2556,259.9049,164.961Z" transform="translate(-0.0004 0)"/><path class="cls-4" d="M259.9049,164.961c1.1145-14.1387-4.21-24.1285-3.8674-40.6525-.0005,5.1013-63.7938,9.6815-62.1469,10.9342,9.8512,7.4936,3.245,7.51-1.096,29.3114a11.3052,11.3052,0,0,0,4.4793,11.5278C213.2154,187.2084,254.3113,178.2556,259.9049,164.961Z" transform="translate(-0.0004 0)"/><path class="cls-3" d="M230.4512,50.4983s-2.6968,4.95-4.5382,6.0333-28.9835-8.9263-27.8048-30.847c.7465-13.8829,27.0989-12.1227,27.0989-12.1227Z" transform="translate(-0.0004 0)"/><path class="cls-1" d="M222.3575,69.5381l1.0958.1405a6.8034,6.8034,0,0,0,7.5912-5.8659L233.72,42.9462a6.8036,6.8036,0,0,0-5.8658-7.5912l-1.0958-.1406A6.8038,6.8038,0,0,0,219.167,41.08l-5.5184,19.6729C213.1739,64.4538,218.6567,69.0637,222.3575,69.5381Z" transform="translate(-0.0004 0)"/><path class="cls-7" d="M232.4187,55.1122a18.5732,18.5732,0,0,1-15.0456-7.7379s6.1322,12.7893,14.2975,13.5725Z" transform="translate(-0.0004 0)"/><path class="cls-8" d="M227.0428,69.7338l-5.1736,9.9275s-24.3805-9.65-15.01-21.6373l8.98-5.0831S210.3757,62.65,227.0428,69.7338Z" transform="translate(-0.0004 0)"/><path class="cls-8" d="M232.4187,55.1122s-.71,10.4587-5.3759,14.6216l9.0484,4.1629s10.3543-12.8252.86-27.0471Z" transform="translate(-0.0004 0)"/><path class="cls-1" d="M215.6532,10.3494c3.4091-6.0194,8.6112-7.4547,13.4363-4.55,4.7306-2.4028,10.4445.0851,14.6578,7.2452,5.867,9.97,6.5921,25.1688,1.62,33.9478-3.4736,6.1335-3.633,9.7893-14.9077,8.6594-8.0041-1.9337-12.6223-3.9578-16.9466-11.3067C207.6462,34.3748,210.6812,19.1286,215.6532,10.3494Z" transform="translate(-0.0004 0)"/><path class="cls-2" d="M216.4681,21.0157c3.0374-5.8331,17.5327.4309,32.2014,7.88,6.1474-.6,3.5943-9.9014-.771-15.27A36.1189,36.1189,0,0,0,226.1374,1.1015L220.27.053c-10.53-1.069-20.5331,14.2933-21.2194,21.4336l6.8237-.5875C205.188,28.04,209.3273,20.3294,216.4681,21.0157Z" transform="translate(-0.0004 0)"/><path class="cls-4" d="M204.8419,96.2031c.26,4.6937.5218,9.1382,1.2326,13.9933a21.894,21.894,0,0,0,23.04,18.765,46.3219,46.3219,0,0,0,30.7586-14.0389c-6.0044,6.7547-3.8627,18.0214-3.8627,18.0214s-8.7461-1.9806-16.0757-1.54c-6.5.391-23.0551,6.0875-26.7238,7.3736,3.29,16.7411-19.6737,33.4169-19.6737,33.4169l-.4315-41.3113Z" transform="translate(-0.0004 0)"/><path class="cls-9" d="M259.8728,114.9225c.0708-.08.1374-.1621.2105-.2406C260.0833,114.6819,260.0126,114.7666,259.8728,114.9225Z" transform="translate(-0.0004 0)"/><path class="cls-10" d="M261.6221,456.9612l-45.0514-26.01c-6.0056,4.169-10.2765,9.0909-12.66,14.38a7.5544,7.5544,0,0,1-3.2594,3.3489c-6.5071,3.7569-19.2016,2.5188-28.3539-2.7652s-11.2968-12.6133-4.79-16.37a16.4024,16.4024,0,0,1,5.6062-1.8522,82.9726,82.9726,0,0,0,24.3489-7.7731l-44.3-25.5765L45.38,456.57l108.46,62.6194,38.5842-22.2766h0c-2.7282-3.0366-15.837-7.0947-17.1692-7.8638-3.5572-2.0538-4.0135-5.3746-1.7782-8.64a78.6609,78.6609,0,0,1,11.0566-7.2573c6.5151-2.1418,13.7063-2.1917,17.8794.2177a6.4264,6.4264,0,0,1,2.6741,2.6784,29.8215,29.8215,0,0,0,7.3635,9.3028l48.5878-28.0522Z" transform="translate(-0.0004 0)"/><path class="cls-11" d="M396.4683,180.8855l-19.76,9.0925L352.5,176.001c-5.8612,4.0688-10.03,8.8725-12.3558,14.0339a7.3732,7.3732,0,0,1-3.1811,3.2685c-6.3507,3.6666-18.74,2.4582-27.6724-2.6988-5.08-2.9329-7.9442-6.5109-8.3048-9.7265l29.9082-14.2365c1.0057-.4543,1.9952-.9212,2.957-1.4075V144.7333l-19.5246,2.1957-23.71-6.6567-56.939,32.8737-48.2529,7.3581v20.5008l43.2678,24.9807a32.4129,32.4129,0,0,0,8.3335-10.9023,7.3724,7.3724,0,0,1,3.1811-3.2686c6.3507-3.6665,18.74-2.4582,27.6723,2.6989q1.2277.7089,2.2807,1.4641l-21.5729.9932v20.5008l42.69,24.6472,41.3514-23.8742a25.976,25.976,0,0,1,3.1767,4.913,7.6062,7.6062,0,0,0,3.1652,3.17c6.3906,3.69,18.767,2.526,27.6437-2.599,5.2438-3.0276,8.0912-6.76,8.2277-10.0688h0c.0057-.1377.0037-.2739,0-.41v-15.813l-3.825-1.3562,25.452-14.6947Z" transform="translate(-0.0004 0)"/><path class="cls-11" d="M396.4683,180.8855l-62.6175-36.1522-19.5246,2.1957-23.71-6.6567L270.93,158.5275s11.0834,49.8965,20.0158,55.0536c.8184.4725.33,48.5378.33,48.5378l41.3514-23.8742a25.9809,25.9809,0,0,1,3.1767,4.913,7.6062,7.6062,0,0,0,3.1652,3.17c6.3906,3.69,18.767,2.5261,27.6437-2.5989,5.2438-3.0276,8.0912-6.76,8.2277-10.0688h0c.0057-.1377.0037-.2739,0-.41V213.0787l-3.825,3.0023,25.452-14.6947Z" transform="translate(-0.0004 0)"/><path class="cls-12" d="M371.115,207.2682a16.3777,16.3777,0,0,0-5.6813-1.8571q-4.375-.6722-8.532-1.6818l39.5666-22.8438v-2.38L352.5,155.5c-5.8612,4.0688-10.03,8.8725-12.3558,14.0339a7.3722,7.3722,0,0,1-3.1811,3.2685c-6.3507,3.6666-18.74,2.4582-27.6724-2.6988s-11.0253-12.31-4.6746-15.9767a16.0109,16.0109,0,0,1,5.4714-1.8077,80.98,80.98,0,0,0,23.7637-7.5861v-2.38l-43.2351-22.582L185.424,178.1243v2.38l43.2678,24.9806a32.4109,32.4109,0,0,0,8.3335-10.9023,7.3727,7.3727,0,0,1,3.1811-3.2685c6.3507-3.6666,18.74-2.4583,27.6723,2.6989s11.0253,12.31,4.6747,15.9766a16.0034,16.0034,0,0,1-5.4715,1.8076c-5.8228.9261-13.4732.8948-18.4954,2.7942v2.38l42.69,24.6472,41.3513-23.8743a25.98,25.98,0,0,1,3.1768,4.9131,7.6056,7.6056,0,0,0,3.1652,3.17c6.39,3.69,18.767,2.526,27.6437-2.5989S377.5055,210.9578,371.115,207.2682Z" transform="translate(-0.0004 0)"/><path class="cls-13" d="M371.115,204.8885a16.3772,16.3772,0,0,0-5.6813-1.8572q-4.375-.672-8.532-1.6818l38.9965-22.5146.57-.3292-105.8525-61.114L185.424,178.1243l105.8526,61.114,41.3513-23.8742a25.9814,25.9814,0,0,1,3.1768,4.913,7.6045,7.6045,0,0,0,3.1652,3.17c6.3905,3.69,18.767,2.5261,27.6437-2.5989S377.5055,208.5781,371.115,204.8885Z" transform="translate(-0.0004 0)"/><path class="cls-11" d="M253.9592,217.458l-16.9425.9492c-1.8236-3.7435-23.61-.598-23.61-.598l-.16,17.8607c-.4887,3.4511,2.3367,7.5791,8.0353,10.8691,8.6581,4.9987,20.6668,6.17,26.8224,2.6161a7.1471,7.1471,0,0,0,3.0834-3.1682c.7345-1.6295,3.2475-3.4935,4.355-5.0372L253.96,217.458" transform="translate(-0.0004 0)"/><path class="cls-12" d="M254.2376,220.14a30.5083,30.5083,0,0,0-3.05,4.8728,7.1469,7.1469,0,0,1-3.0834,3.1681c-6.1556,3.554-18.1643,2.3828-26.8223-2.6159s-10.6866-11.932-4.5311-15.4859a15.5136,15.5136,0,0,1,5.3034-1.7521,82.0319,82.0319,0,0,0,8.2292-1.748l23.6759,10.8794Z" transform="translate(-0.0004 0)"/><path class="cls-13" d="M230.2832,203.7886a81.9981,81.9981,0,0,1-8.2292,1.748,15.5147,15.5147,0,0,0-5.3032,1.7521c-6.1556,3.5539-4.127,10.4872,4.5309,15.4859s20.6669,6.17,26.8224,2.6159a7.1456,7.1456,0,0,0,3.0834-3.168,27.7659,27.7659,0,0,1,2.7717-4.7645Z" transform="translate(-0.0004 0)"/><path class="cls-10" d="M542.46,417.91c-16.0911-8.5683-43.4647-8.8412-61.1408-.6094-9.8826,4.6024-14.6367,10.8887-14.1,17.0349L431.8407,413.91l-38.8271,22.417a84.0635,84.0635,0,0,0,17.0993,4.4063,14.7893,14.7893,0,0,1,5.13,1.677c5.7707,3.3318,3.9508,9.7842-4.0648,14.412s-19.1916,5.6786-24.9624,2.3469a6.8685,6.8685,0,0,1-2.8581-2.8628,29.31,29.31,0,0,0-8.1971-9.6721L336.852,468.7514l37.575,21.694a76.41,76.41,0,0,1-7.6665,1.6284,14.4549,14.4549,0,0,0-4.9407,1.6322c-5.7346,3.3109-3.8447,9.77,4.2212,14.4271s19.2537,5.748,24.9884,2.4371a6.6578,6.6578,0,0,0,2.8725-2.9515,25.8741,25.8741,0,0,1,2.5822-4.4387l35.9533,20.7576,94.9888-54.8417-26.2494-15.155c13.2387,1.2612,27.63-.5893,38.4134-5.6114C557.2662,440.0976,558.551,426.4784,542.46,417.91Z" transform="translate(-0.0004 0)"/><path class="cls-14" d="M396.6255,219.7214s30.3677.3911,47.7314-17.2188c14.4382-14.6429,30.5883-64.1487,30.5883-64.1487" transform="translate(-0.0004 0)"/><path class="cls-15" d="M397.42,207.7256l-6.0861,1.6271a8.6468,8.6468,0,0,0-6.2546,10.5077l.0017.0066h0a8.7527,8.7527,0,0,0,10.7491,5.97l6.0861-1.6271a8.6464,8.6464,0,0,0,6.2545-10.5075l-.0017-.0068h0A8.7528,8.7528,0,0,0,397.42,207.7256Z" transform="translate(-0.0004 0)"/><path class="cls-16" d="M507.9689,430.0459a4.3914,4.3914,0,0,0,0-.5332v-6.7759l-4.28,1.0318c-.0987-.06-.1871-.1234-.2892-.1823-5.544-3.2008-14.0082-3.5517-18.8094-.78l-16.5561,9.5586-13.8614,3.3422v7.0507l.0091-.0022c-.2492,2.275,1.2892,4.7381,4.5487,6.62,5.544,3.2009,14.0083,3.5517,18.81.78l27.21-15.71a5.71,5.71,0,0,0,3.2134-4.3592l.0051-.0013Z" transform="translate(-0.0004 0)"/><path class="cls-13" d="M477.54,443.0714l27.21-15.71c4.8012-2.772,4.1935-7.6588-1.3505-10.86h0c-5.544-3.2009-14.0082-3.5517-18.8094-.78l-27.21,15.71c-4.8012,2.772-4.1935,7.6588,1.35,10.86h0C464.2749,445.4926,472.7392,445.8435,477.54,443.0714Z" transform="translate(-0.0004 0)"/><path class="cls-16" d="M547.7922,452.6746a4.4324,4.4324,0,0,0,0-.5332v-6.7759l-4.28,1.0318c-.0988-.06-.187-.1234-.2893-.1823-5.544-3.2008-14.0081-3.5517-18.8093-.78l-16.5561,9.5586-13.8614,3.3422v7.0506l.0091-.0022c-.2492,2.2751,1.2892,4.7382,4.5488,6.62,5.544,3.2008,14.0082,3.5517,18.8094.78l27.21-15.71a5.71,5.71,0,0,0,3.2134-4.3591l.0052-.0014Z" transform="translate(-0.0004 0)"/><path class="cls-13" d="M517.3636,465.7l27.21-15.71c4.8012-2.7719,4.1936-7.6588-1.3505-10.86h0c-5.544-3.2009-14.0082-3.5517-18.8094-.78l-27.21,15.71c-4.8012,2.7721-4.1936,7.6588,1.35,10.86h0C504.0981,468.1213,512.5624,468.4722,517.3636,465.7Z" transform="translate(-0.0004 0)"/><path class="cls-17" d="M485.4683,280.09s-18.0162,24.2538-13.0865,68.6343,16.51,56.67,18.2216,71.7728" transform="translate(-0.0004 0)"/><circle class="cls-18" cx="509.3041" cy="275.694" r="40.3258" transform="translate(155.5882 734.2604) rotate(-80.7825)"/><path class="cls-19" d="M537.7751,261.3974c-4.4733-1.7157-23.9673-26.0292-29.045-26.0292a40.3259,40.3259,0,1,0,14.3954,77.97C501.7554,317.6456,499.2551,278.8492,537.7751,261.3974Z" transform="translate(-0.0004 0)"/><path class="cls-20" d="M474.403,86.0578l17.0937,9.869a3.8052,3.8052,0,0,1,1.5829,3.0244h0c0,1.1608-.7123,1.6993-1.5829,1.1966L474.403,90.2789a3.8048,3.8048,0,0,1-1.5828-3.0244h0C472.82,86.0937,473.5324,85.5552,474.403,86.0578Z" transform="translate(-0.0004 0)"/><path class="cls-20" d="M471.0283,88.5964a4.5065,4.5065,0,1,1,4.5065,4.5065,4.5065,4.5065,0,0,1-4.5065-4.5065Z" transform="translate(-0.0004 0)"/><path class="cls-15" d="M467.4443,250.1255l.03-76.5332c0-37.35,14.1121-51.1722,37.6425-42.5873l9.7223,2.5821c28.4,15.2994,42.8236,14.5317,37.7443,44.5875l-4.7714,74.0487C547.8115,286.14,465.6358,289.9982,467.4443,250.1255Z" transform="translate(-0.0004 0)"/><path class="cls-19" d="M514.499,133.8763l-9.7223-2.582c-9.75-3.5573-17.877-3.2544-24.0591.9628l6.0969,1.6192c28.4,15.2994,42.8236,14.5318,37.7443,44.5876l-.3922,74.0487a133.3632,133.3632,0,0,1-2.803,25.6987c16.3893-2.7608,26.1083-11.65,26.1083-25.6987l4.7713-74.0487C557.3226,148.4081,542.8991,149.1757,514.499,133.8763Z" transform="translate(-0.0004 0)"/><circle class="cls-13" cx="513.6915" cy="119.6025" r="4.7767" transform="translate(313.3486 607.5028) rotate(-80.7825)"/><ellipse class="cls-20" cx="510.5163" cy="133.3317" rx="9.028" ry="15.6382" transform="translate(374.4035 643.1137) rotate(-89.6877)"/><ellipse class="cls-20" cx="510.5434" cy="138.3532" rx="9.028" ry="15.6384" transform="translate(369.384 648.1281) rotate(-89.6849)"/><path class="cls-19" d="M510.7369,117.8994l-28.1541-16.3008v19.8556a6.223,6.223,0,0,0,3.1115,5.3893l21.314,12.3056a7.536,7.536,0,0,0,7.5363,0l21.826-12.6011a5.1993,5.1993,0,0,0,2.6-4.5026V101.5989Z" transform="translate(-0.0004 0)"/><polygon class="cls-15" points="510.776 126.077 482.583 120.564 482.384 86.352 510.776 102.675 510.776 126.077"/><polygon class="cls-19" points="538.97 109.8 510.776 126.077 510.697 102.675 538.97 86.352 538.97 109.8"/><path class="cls-13" d="M507.9546,102.2467l-24.664-14.24a1.8123,1.8123,0,0,1,0-3.1392l25.2208-14.5613a4.35,4.35,0,0,1,4.35,0L538.083,84.8679a1.8124,1.8124,0,0,1,0,3.1393l-24.663,14.24A5.4644,5.4644,0,0,1,507.9546,102.2467Z" transform="translate(-0.0004 0)"/><path class="cls-15" d="M510.7765,140.1589a7.6954,7.6954,0,0,1-4.2064-1.2627l-20.8759-12.0527a6.223,6.223,0,0,1-3.1114-5.3892V101.5986l28.1936,16.3237Z" transform="translate(-0.0004 0)"/><path class="cls-20" d="M504.66,119.0585l-15.9614-9.2153c-2.5143-1.4517-4.5715-5.3822-4.5715-8.7346h0c0-3.3525,2.0572-4.9077,4.5715-3.456l15.9614,9.2153c2.5143,1.4516,4.5715,5.3822,4.5715,8.7346h0C509.2318,118.955,507.1746,120.51,504.66,119.0585Z" transform="translate(-0.0004 0)"/><path class="cls-20" d="M507.7112,179.6346l-23.3477-12.3392c-3.6779-1.9437-5.8428-7.1178-4.811-11.4979h0c1.0318-4.38,4.8851-6.3735,8.5629-4.43l23.3477,12.3392c3.6779,1.9438,5.8428,7.1179,4.811,11.4979h0C515.2423,179.585,511.3889,181.5783,507.7112,179.6346Z" transform="translate(-0.0004 0)"/><ellipse class="cls-20" cx="526.4429" cy="114.1543" rx="14.1345" ry="8.1603" transform="translate(162.2052 511.0227) rotate(-59.6896)"/><path class="cls-21" d="M520.3807,118.9437c-.0008,4.5444,3.2086,6.374,7.1683,4.0867a15.81,15.81,0,0,0,7.1715-12.37c.0008-4.5444-3.2085-6.374-7.1684-4.0866A15.8089,15.8089,0,0,0,520.3807,118.9437Z" transform="translate(-0.0004 0)"/><path class="cls-21" d="M527.1159,180.5122c1.4439,7.5952,7.93,10.68,14.4874,6.89s10.7025-13.0193,9.2588-20.6144-7.93-10.68-14.4875-6.89S525.6721,172.9171,527.1159,180.5122Z" transform="translate(-0.0004 0)"/><ellipse class="cls-21" cx="528.1279" cy="292.6071" rx="17.7599" ry="12.6021" transform="translate(53.0001 665.1551) rotate(-67.0885)"/><path class="cls-20" d="M525.7786,116.46c.0016,1.8224,1.29,2.5576,2.8789,1.642a6.3232,6.3232,0,0,0,2.8738-4.9576c-.0014-1.8223-1.29-2.5574-2.8789-1.6419A6.3232,6.3232,0,0,0,525.7786,116.46Z" transform="translate(-0.0004 0)"/><path class="cls-22" d="M517.2458,90.0544a12.3158,12.3158,0,0,1-10.77-.0175c-2.9835-1.6579-2.9987-4.3379-.034-5.9861a12.3154,12.3154,0,0,1,10.77.0176C520.1953,85.7262,520.2106,88.4062,517.2458,90.0544Z" transform="translate(-0.0004 0)"/><rect class="cls-22" x="504.2279" y="84.4782" width="15.2311" height="2.7025"/><path class="cls-19" d="M517.2458,87.48a12.3158,12.3158,0,0,1-10.77-.0175c-2.9835-1.6579-2.9987-4.338-.034-5.9862a12.3158,12.3158,0,0,1,10.77.0177C520.1953,83.1518,520.2106,85.8319,517.2458,87.48Z" transform="translate(-0.0004 0)"/><path class="cls-23" d="M525.5362,68.8987c0-6.6892-6.13-12.1118-13.6925-12.1118S498.1512,62.21,498.1512,68.8987a11.5588,11.5588,0,0,0,4.7427,9.1665,11.1784,11.1784,0,0,1,2.6469,5.248,4.2642,4.2642,0,0,0,2.8607,3.1051,10.1593,10.1593,0,0,0,6.8058.0892,4.1776,4.1776,0,0,0,2.6825-3.0416,10.752,10.752,0,0,1,2.63-5.1462c.0469-.05.089-.098.1277-.1453A11.5853,11.5853,0,0,0,525.5362,68.8987Z" transform="translate(-0.0004 0)"/><path class="cls-24" d="M515.0679,84.9645a7.6558,7.6558,0,0,1-6.6948-.011c-1.8546-1.0305-1.864-2.6965-.0211-3.7209a7.6552,7.6552,0,0,1,6.6947.0109C516.9012,82.2741,516.9107,83.94,515.0679,84.9645Z" transform="translate(-0.0004 0)"/><path class="cls-24" d="M512.5214,84.09a.3492.3492,0,0,1-.3556-.3423l-.0017-8.9557c-.0409-.0063-.0816-.0129-.1224-.02a8.0365,8.0365,0,0,1-1.3165-.3415V82.965a.3559.3559,0,0,1-.7113,0V74.1425a7.76,7.76,0,0,1-1.9843-1.3111,5.0672,5.0672,0,0,1-1.7305-2.9305,1.7788,1.7788,0,0,1,1.099-1.993,2.1184,2.1184,0,0,1,1.9988.037c1.2573.7788,1.3258,3.0163,1.328,3.1112v2.6455a7.3891,7.3891,0,0,0,1.44.3966l.0474.0079c.22-2.409.7615-3.8385,1.6492-4.3619a1.7659,1.7659,0,0,1,1.6455-.0389,2.3292,2.3292,0,0,1,1.5441,2.8184c-.328,1.1867-1.6556,2.3506-3.8449,2.3508q-.1626,0-.3314-.0088l.0018,8.8819A.3492.3492,0,0,1,512.5214,84.09Zm.3982-9.9075c1.9878.1009,3.1736-.8544,3.4446-1.8348a1.662,1.662,0,0,0-1.14-2.0144,1.0612,1.0612,0,0,0-.9911-.0053c-.4745.28-1.0717,1.1835-1.3131,3.8545Zm-4.4819-5.8193a2.0226,2.0226,0,0,0-.76.1741,1.1242,1.1242,0,0,0-.6719,1.2854,5.4125,5.4125,0,0,0,3.0083,3.5574V71.0684c-.015-.549-.2235-2.0667-1.0025-2.5483A1.0662,1.0662,0,0,0,508.4377,68.3632Z" transform="translate(-0.0004 0)"/><path class="cls-25" d="M509.0147,65.9978a5.8668,5.8668,0,0,1-3.7967,5.4287c-2.0969.6164-3.7967-.8147-3.7967-3.1964a5.867,5.867,0,0,1,3.7967-5.4287C507.3149,62.185,509.0147,63.6161,509.0147,65.9978Z" transform="translate(-0.0004 0)"/><path class="cls-8" d="M491.5061,105.5394c0,1.4294-.8684,2.0868-1.94,1.4683a4.6475,4.6475,0,0,1-1.94-3.7082c0-1.4294.8685-2.0868,1.94-1.4683A4.6475,4.6475,0,0,1,491.5061,105.5394Z" transform="translate(-0.0004 0)"/><path class="cls-8" d="M504.2279,112.4535c0,1.4295-.8684,2.0868-1.94,1.4684a4.6479,4.6479,0,0,1-1.94-3.7083c0-1.4294.8685-2.0868,1.94-1.4683A4.6475,4.6475,0,0,1,504.2279,112.4535Z" transform="translate(-0.0004 0)"/><path class="cls-20" d="M543.4133,125.7578l-15.8626-9.1584c-.8706-.5026,1.1681-3.5467,2.0387-3.044l13.8239,7.9813a3.8047,3.8047,0,0,1,1.5829,3.0244h0C544.9962,125.722,544.2839,126.26,543.4133,125.7578Z" transform="translate(-0.0004 0)"/><path class="cls-17" d="M530.7726,292.6071s-18.5633,31.3-13.6336,75.68,16.51,56.67,18.2216,71.7728" transform="translate(-0.0004 0)"/><path class="cls-15" d="M466.4724,319.2573h0a7.6772,7.6772,0,0,1,7.6773,7.6773v29.9145a7.6773,7.6773,0,0,1-7.6773,7.6773h0a7.6774,7.6774,0,0,1-7.6773-7.6773V326.9346A7.6773,7.6773,0,0,1,466.4724,319.2573Z" transform="translate(-0.0004 0)"/><path class="cls-15" d="M509.3041,338.2153h0a7.6774,7.6774,0,0,1,7.6773,7.6773v29.9145a7.6774,7.6774,0,0,1-7.6773,7.6773h0a7.6774,7.6774,0,0,1-7.6773-7.6773V345.8926A7.6774,7.6774,0,0,1,509.3041,338.2153Z" transform="translate(-0.0004 0)"/><path class="cls-26" d="M536.38,174.5332s-2.5279-9,6.784-9.032" transform="translate(-0.0004 0)"/><path class="cls-26" d="M522.46,290.3611s3.3735-6.5955,8.4275-5.628" transform="translate(-0.0004 0)"/><path class="cls-26" d="M479.8179,161.4114s-2.5877-9.144,4.5671-10.7117c0,0,1.41-.5585,4.2188.9261l11.527,6.0921" transform="translate(-0.0004 0)"/><path class="cls-26" d="M509.2318,147.3462s10.4624.6359,15.6019-5.31" transform="translate(-0.0004 0)"/><path class="cls-26" d="M526.4429,118.1842s-2.1585-3.22,2.2094-6.682" transform="translate(-0.0004 0)"/><path class="cls-26" d="M529.4323,167.3846s-6.9761,14.6585,2.33,20.4751" transform="translate(-0.0004 0)"/><path class="cls-26" d="M507.9894,467.5382s5.0473.6221,8.8989-1.5826,28.8522-16.7671,28.8522-16.7671" transform="translate(-0.0004 0)"/><path class="cls-26" d="M468.6094,444.8605s5.0473.6221,8.8989-1.5827,28.8522-16.767,28.8522-16.767" transform="translate(-0.0004 0)"/><path class="cls-4" d="M494.98,257.5557l-60.5126-34.9369-15.2521-2.8259-30.9717,6.25v23.2628A100.0755,100.0755,0,0,0,408.6,254.5519a17.6055,17.6055,0,0,1,6.1075,1.9965c6.87,3.9664,4.7034,11.6481-4.8392,17.1575s-22.8476,6.76-29.7178,2.7939a8.1772,8.1772,0,0,1-3.4026-3.408,34.8947,34.8947,0,0,0-9.7586-11.5148L347.014,273.11l-25.6313-8.4646v23.2629l26.015,15.02-.1775,19.8093c-.5419,3.8277,2.5917,8.4059,8.9121,12.055,9.6026,5.544,22.9215,6.843,29.7486,2.9014a7.9265,7.9265,0,0,0,3.42-3.5138,30.7948,30.7948,0,0,1,3.0742-5.2842l42.8024,24.7119,113.0844-65.2893V265.0553Z" transform="translate(-0.0004 0)"/><path class="cls-27" d="M548.2618,265.0553v-3.0944L434.4671,199.356l-46.2238,23.593v3.0943A100.0773,100.0773,0,0,0,408.6,231.2891a17.6053,17.6053,0,0,1,6.1075,1.9964c6.87,3.9665,4.7035,11.6482-4.8391,17.1576s-22.8476,6.76-29.7177,2.7939a8.1758,8.1758,0,0,1-3.4026-3.4081,34.8989,34.8989,0,0,0-9.7586-11.5147l-45.6067,23.2367v3.0944l44.7331,25.8267a91.0418,91.0418,0,0,1-9.127,1.9387,17.2073,17.2073,0,0,0-5.8819,1.9432c-6.8271,3.9417-4.5771,11.6314,5.0254,17.1754s22.9215,6.843,29.7486,2.9014a7.927,7.927,0,0,0,3.42-3.5138,30.7818,30.7818,0,0,1,3.0742-5.2842l42.8023,24.7119,46.9726-27.12Z" transform="translate(-0.0004 0)"/><path class="cls-6" d="M548.2618,261.9609,434.4671,196.2616,388.2433,222.949A100.0773,100.0773,0,0,0,408.6,228.1948a17.6032,17.6032,0,0,1,6.1075,1.9964c6.87,3.9664,4.7035,11.6482-4.8391,17.1576s-22.8476,6.76-29.7177,2.7939a8.176,8.176,0,0,1-3.4026-3.4082A34.8985,34.8985,0,0,0,366.99,235.22l-45.6067,26.331,44.7331,25.8267a91.0144,91.0144,0,0,1-9.127,1.9388,17.205,17.205,0,0,0-5.8819,1.9431c-6.8271,3.9418-4.5771,11.6314,5.0254,17.1755s22.9215,6.843,29.7486,2.9013a7.9273,7.9273,0,0,0,3.42-3.5137,30.7788,30.7788,0,0,1,3.0742-5.2843l42.8023,24.712Z" transform="translate(-0.0004 0)"/><path class="cls-14" d="M535.3606,271.6726s17.0574-24.1383,15.3743-48.8117c-1.4155-20.75-9.287-51.6919-9.287-51.6919" transform="translate(-0.0004 0)"/><circle class="cls-15" cx="550.8518" cy="225.3488" r="8.5682" transform="translate(240.1755 732.9907) rotate(-80.7825)"/><path class="cls-15" d="M534.7664,282.9887l3.4658-5.2607a8.6467,8.6467,0,0,0-2.3106-12.0081l-.0055-.0037h0A8.7522,8.7522,0,0,0,523.9176,268.4l-3.4658,5.2608a8.6467,8.6467,0,0,0,2.31,12.0081l.0055.0037h0A8.7524,8.7524,0,0,0,534.7664,282.9887Z" transform="translate(-0.0004 0)"/><path class="cls-24" d="M249.4983,284.5928,221.41,268.3758c-6.8006,4.721-11.637,10.2944-14.3362,16.2831-.6521,1.4467-18.6082-8.87-20.4263-7.82-7.3685,4.2541-5.0082,14.4646-15.3721,8.481-5.8942-3.403-9.2176-7.5544-9.6359-11.2853l34.7017-16.5181c1.1668-.5273,2.3149-1.0689,3.4309-1.6333V232.0966l-22.6539,2.5477-27.5105-7.7236-66.065,38.1424-55.9866,8.5375V297.387l73.2857,42.3115,49.5322,28.5974,45.6384-26.3494-1.9374-22.668L190.31,313.7c7.3776-2.4254,15.5208-2.4818,20.2464.2465a7.2783,7.2783,0,0,1,3.0282,3.033c1.6163,3.3183,2.2753,7.0785,5.6757,11.8775L272.425,297.83V274.043Z" transform="translate(-0.0004 0)"/><path class="cls-28" d="M221.4094,244.5892c-6.8,4.721-11.6369,10.2945-14.3362,16.2832a8.5542,8.5542,0,0,1-3.6909,3.7923c-7.3685,4.2542-21.7435,2.8522-32.1074-3.1314s-12.7923-14.2831-5.424-18.5372a18.5713,18.5713,0,0,1,6.3484-2.0974,93.96,93.96,0,0,0,27.5724-8.8021v-2.7612l-50.1645-26.2012L27.5561,270.8393v2.7613L150.374,344.5093l43.701-25.2308-.009-2.756-52.1651-15.5883,69.09-29.8736,6.1053,34.9267,55.329-31.9443v-2.7611Z" transform="translate(-0.0004 0)"/><path class="cls-23" d="M272.425,271.2819l-51.0156-29.4538c-6.8,4.7209-11.6369,10.2944-14.3362,16.2831a8.5537,8.5537,0,0,1-3.6909,3.7923c-7.3685,4.2543-21.7435,2.8523-32.1074-3.1314s-12.7924-14.283-5.424-18.5372a18.5741,18.5741,0,0,1,6.3484-2.0974,93.96,93.96,0,0,0,27.5724-8.8021L149.6072,200.373,27.5561,270.8393,150.374,341.7482l43.692-25.2257h0c-3.0893-3.4386-17.9335-8.034-19.4419-8.9049-4.0282-2.3257-4.5449-6.0862-2.0137-9.7839a89.065,89.065,0,0,1,12.52-8.2179c7.3775-2.4255,15.5207-2.4818,20.2463.2465a7.2766,7.2766,0,0,1,3.0282,3.033,33.77,33.77,0,0,0,8.3383,10.5343l55.02-31.7659Z" transform="translate(-0.0004 0)"/><ellipse class="cls-10" cx="64.7239" cy="539.6858" rx="64.7311" ry="32.1574" transform="translate(-9.5559 1.232) rotate(-1.0156)"/><path class="cls-3" d="M21.3893,511.6326l15.0361-1.8868c10.0631-4.56,14.7653-7.9848,19.2467-5.3975l1.27.7334c4.4814,2.5873,3.9142,7.1486-1.2605,10.1362L33.5754,532.7811A14.5889,14.5889,0,0,1,17.2984,531.2s-2.4736-2.2318-.7048-11.6267C17.6024,514.2153,17.2505,514.022,21.3893,511.6326Z" transform="translate(-0.0004 0)"/><path class="cls-29" d="M33.854,512.373c-.35,5.7283-15.7372,5.7283-15.3866,0l1.1393-18.6172H34.9934Z" transform="translate(-0.0004 0)"/><path class="cls-3" d="M75.5649,537.0145l15.3344,3.8224c11.5033-.649,17.3654-2.2109,20.7506,1.9918l.96,1.1911c3.3852,4.2028,1.1175,8.4258-5.04,9.3847l-28.1093,8.7649c-6.157.9589-10.464-1.5164-13.1175-6.5966,0,0-1.0158-8.7088,1.57-12.6395C71.0378,538.1835,70.6405,537.7814,75.5649,537.0145Z" transform="translate(-0.0004 0)"/><path class="cls-29" d="M86.23,542.7744c0,6.3256-15.3867,6.3256-15.3867,0V522.2162H86.23Z" transform="translate(-0.0004 0)"/><path class="cls-30" d="M66.5472,520.7067l1.8762,12.14s4.7455,6.5113,12.6916,4.1938,8.3874-6.8424,8.3874-6.8424V519.3824A20.46,20.46,0,0,1,66.5472,520.7067Z" transform="translate(-0.0004 0)"/><path class="cls-30" d="M14.3528,490.5374l.2414,12.31a13.7265,13.7265,0,0,0,13.1374,6.2013c8.955-1.0064,10.1015-5.41,10.1015-5.41l1.5967-10.697A24.1092,24.1092,0,0,1,14.3528,490.5374Z" transform="translate(-0.0004 0)"/><path class="cls-31" d="M66.3431,552.7371s-1.4945,13.3453,8.4841,13.1684c7.7763-.1378,27.6136-7.39,35.9917-10.5852,3.4287-1.3074,3.9475-5.0243,2.8237-8.5174" transform="translate(-0.0004 0)"/><path class="cls-32" d="M16.3055,523.8121s-3.1164,12.5925,6.4233,13.7269c3.1106.37,7.322,1.0416,10.303-.7529,7.7592-4.6709,18.1116-14.3517,26.1976-21.6911,2.8509-2.5876-.2789-7.6418-.6311-8.3574" transform="translate(-0.0004 0)"/><path class="cls-33" d="M91.2351,540.3948s5.9107,1.2727,3.477,8.5494" transform="translate(-0.0004 0)"/><path class="cls-33" d="M97.4879,539.6857s5.9108,1.2727,3.4771,8.5494" transform="translate(-0.0004 0)"/><path class="cls-34" d="M37.7773,509.2087s5.5507-1.9521,7.2347,5.3232" transform="translate(-0.0004 0)"/><path class="cls-34" d="M41.7963,506.4281s5.5507-1.9522,7.2347,5.3231" transform="translate(-0.0004 0)"/><path class="cls-35" d="M378.9543,371.0866,367.9964,364.76a38.5844,38.5844,0,0,0-6.1244,6.8664l-42.0627,1.33c-4.8177-4.88-4.9548-10.2391.4027-13.3323a17.5218,17.5218,0,0,1,5.99-1.9789,90.4456,90.4456,0,0,0,19.9071-5.5216V326.8994L315.48,324.4879l-18.6584-.8206-29.4762,17.018-61.6421-15.2239v28.2064c-.1406,2.546,1.1735,4.87,4.0722,6.5431a17.9234,17.9234,0,0,0,6.2191,2.033c1.1868.1823,2.36.3881,3.5255.6045l2.8893,1.92-40.7411-.7649V390.151l115.8764,66.9012L412.698,390.5684V365.3445Z" transform="translate(-0.0004 0)"/><path class="cls-35" d="M378.9543,371.0866,367.9964,364.76a38.5844,38.5844,0,0,0-6.1244,6.8664l-42.0627,1.33c-4.8177-4.88-22.2647,58.8722-22.2647,58.8722v25.2239L412.698,390.5684V365.3445Z" transform="translate(-0.0004 0)"/><path class="cls-36" d="M367.9965,339.5362a35.3278,35.3278,0,0,0-8.8919,11.73,8.07,8.07,0,0,1-3.4824,3.578c-6.9521,4.0137-20.5147,2.6909-30.2929-2.9546s-12.0693-13.476-5.1173-17.49a17.5259,17.5259,0,0,1,5.99-1.9788,90.4387,90.4387,0,0,0,19.9072-5.5217V324.3l-49.2873-25.8566-47.1831,29.4858c-1.6139-1.9118-2.9384-7.0443-3.9413-9.1033-.6425-1.319.9427-3.1881-.7327-4.1554-6.9957-4.039-20.5441-2.7651-30.2615,2.8451-3.827,2.21-6.5806,2.3349-7.9743,4.8644-2.1449,3.8932-2.3217,10.5259,3.0468,12.6071a28.7205,28.7205,0,0,0,6.2191,2.0329c3.5593.5467,7.03,1.2483,10.38,2.096l-44.7062,23.2117v2.5994l115.8764,66.9012L412.698,365.3445v-2.5993Z" transform="translate(-0.0004 0)"/><path class="cls-37" d="M367.9965,336.9368a35.3278,35.3278,0,0,0-8.8919,11.73,8.07,8.07,0,0,1-3.4824,3.5779c-6.9521,4.0137-20.5147,2.6909-30.2929-2.9546s-12.0693-13.476-5.1173-17.49a17.5236,17.5236,0,0,1,5.99-1.9787A90.4456,90.4456,0,0,0,346.1088,324.3l-49.2873-28.456L250.126,322.8358c-1.614-1.9117-1.7618-4.5454-2.7646-6.6044-.6425-1.3189-2.9324-2.8724-4.6078-3.84-6.9957-4.039-18.3333-3.0857-28.0507,2.5245s-11.9233,13.4327-4.9275,17.4715a17.93,17.93,0,0,0,6.2191,2.033c3.5593.5466,7.03,1.2482,10.38,2.0959l-44.7062,25.8111,115.8764,66.9012L412.698,362.7452Z" transform="translate(-0.0004 0)"/><path class="cls-10" d="M364.6173,514.6332a35.5527,35.5527,0,0,0-8.9481,11.8042,8.1227,8.1227,0,0,1-3.5043,3.6007c-6.9962,4.0391-20.6446,2.7079-30.4846-2.9733s-12.1457-13.5613-5.15-17.6a17.6325,17.6325,0,0,1,6.0275-1.9914,91.0026,91.0026,0,0,0,20.0331-5.5566L292.9921,473.28l-46.9908,27.163c-1.6242-1.9238-1.773-4.5741-2.7822-6.6462-.6465-1.3272-2.951-2.8907-4.6369-3.8641-7.04-4.0645-18.4494-3.1051-28.2281,2.5406s-11.9988,13.5176-4.9587,17.582a18.0412,18.0412,0,0,0,6.2584,2.0459c3.5818.55,7.0741,1.2561,10.4456,2.1092L177.11,540.1848l116.61,67.3244,115.8818-66.9043Z" transform="translate(-0.0004 0)"/><rect class="cls-1" x="199.0961" y="182.2944" width="15.2749" height="20.7816" rx="6.6432" transform="translate(-38.4739 52.1866) rotate(-13.1738)"/><path class="cls-1" d="M198.0709,189.17s-35.06-38.1888-26.7911-49.602l11.6367-8.6839s-1.4981,18.5357,27.3811,51.8408Z" transform="translate(-0.0004 0)"/><path class="cls-6" d="M208.2776,87.1239l-20.0877,62.96c-7.6464-.2033-11.6852,3.1249-13.5672,8.5644,0,0-9.6146-7.276-3.6055-31.0507,7.6482-30.26,16.3189-47.936,16.3189-47.936Z" transform="translate(-0.0004 0)"/><path class="cls-38" d="M297.3377,356.377l1.3037-.1081a8.0557,8.0557,0,0,0,7.3408-8.6685l-2.059-24.8235a8.0561,8.0561,0,0,0-8.6688-7.3407l-1.3036.1081a8.0556,8.0556,0,0,0-7.3408,8.6684l-1.5282,24.1439C285.4469,352.7591,292.9351,356.7421,297.3377,356.377Z" transform="translate(-0.0004 0)"/><ellipse class="cls-38" cx="287.8342" cy="310.0882" rx="25.0454" ry="14.1964" transform="translate(-27.9093 591.7077) rotate(-88.8621)"/><path class="cls-39" d="M274.9771,299.9826s6.2387-7.4918,18.341-6.0636l-5.8-8.84S278.2455,282.9335,274.9771,299.9826Z" transform="translate(-0.0004 0)"/><path class="cls-3" d="M308.3887,309.3367c-3.7568-5.683-12.7182-5.79-25.7467-1.5379-11.8114.0792-12.7115-13.4826-12.7115-13.4826-1.4752-7.2827,3.455-10.2656,10.7378-11.7408l18.9672-3.842c10.7334-2.2341,20.5076,7.0244,21.9828,14.307l.4254,1.2087C323.5189,301.5319,315.6716,307.8615,308.3887,309.3367Z" transform="translate(-0.0004 0)"/><ellipse class="cls-40" cx="298.7641" cy="672.3231" rx="52.4338" ry="26.0485" transform="translate(-1.3797 0.6147) rotate(-0.1176)"/><path class="cls-41" d="M249.8113,673.7419l21.23,17.0532c5.36,3.42,8.2125,2.773,12.62,1.7426,1.9784-.4624,4.0362-2.2782,3.874-6.1681l-.106-4.3852c.0663-6.3284-3.6923-13.22-7.7673-15.0684l-23.7131-8.0608C251.8742,657.0065,238.793,664.0973,249.8113,673.7419Z" transform="translate(-0.0004 0)"/><path class="cls-41" d="M321.5406,647.2612l-3.5015,27.0027c-.7329,14.0506,21.66,14.4052,21.5049-.7356l-2.0982-28.7793C336.9018,640.3078,324.0359,632.8339,321.5406,647.2612Z" transform="translate(-0.0004 0)"/><path class="cls-29" d="M269.6783,673.2378c.0746,6.464,15.7981,6.2824,15.7235-.1816l-.2425-21.0083-15.7235.1816Z" transform="translate(-0.0004 0)"/><path class="cls-29" d="M321.13,660.3588c.1279,6.4633,15.8493,6.1522,15.7215-.3109l-.4156-21.0057-15.7215.3111Z" transform="translate(-0.0004 0)"/><path class="cls-3" d="M318.9145,654.4349c6.2484,4.2985,16.435,3.9964,19.736-1.2145,2.5085-76.9727,10.0354-129.75,7.9483-195.48l-45.0453-12.3939C311.8209,524.1044,314.1178,593.4262,318.9145,654.4349Z" transform="translate(-0.0004 0)"/><path class="cls-3" d="M267.6814,662.6351c5.1147,6.8524,16.3622,6.6739,19.5812,1.5879l28.8058-207.9786-56.7411,1.1226Z" transform="translate(-0.0004 0)"/><path class="cls-42" d="M346.5988,468.4875c2.6317-24.0717-.4407-44.5685,2.6317-75.4408-.8437-42.6444-6.73-49.7954-35.3535-50.9561l-6.6643-.2883c-8.1716-.3535-29.73,4.526-36.7393,8.7412-14.3907,8.6539-24.0327,12.2664-18.3137,42.4592l7.1676,75.1114C260.0935,506.8386,349.5647,513.9718,346.5988,468.4875Z" transform="translate(-0.0004 0)"/><polygon class="cls-43" points="277.342 389.864 260.972 463.885 259.409 469.569 255.095 414.141 277.342 389.864"/><path class="cls-3" d="M314.8712,330.5737c-4.9718,10.9024-17.7995,13.1977-23.8662,4.688s-14.4324-25.4623-9.4606-36.3648,35.42-10.9157,41.487-2.4059S319.843,319.6713,314.8712,330.5737Z" transform="translate(-0.0004 0)"/><path class="cls-38" d="M252.4771,407.7055s-12.4915,13.4983-43.3676,3.0617c0,0-13.9557-15.9149-.84-16.2544,18.9361-.49,37.5158-5.63,37.5158-5.63Z" transform="translate(-0.0004 0)"/><path class="cls-42" d="M277.3418,389.8637c-10.3632,13.2242-22.2148,22.441-34.311,30.9992-2.7249,3.2512-19.2327-26.7464-14.3446-30.5031,10.8692-8.3537,21.8422-33.2878,41.7872-39.8163C286.6728,345.241,288.3955,370.1541,277.3418,389.8637Z" transform="translate(-0.0004 0)"/><path class="cls-38" d="M201.6708,408.6606l-5.47-3.581a9.6973,9.6973,0,0,1-2.7933-13.3855h0a9.6973,9.6973,0,0,1,13.3855-2.7933l5.47,3.5809a9.6973,9.6973,0,0,1,2.7934,13.3855h0A9.6973,9.6973,0,0,1,201.6708,408.6606Z" transform="translate(-0.0004 0)"/><path class="cls-38" d="M409.2049,395.8743l-5.1083,4.08a9.697,9.697,0,0,1-13.589-1.5211h0a9.6972,9.6972,0,0,1,1.5211-13.5881l5.1082-4.08a9.6969,9.6969,0,0,1,13.5891,1.5211h0A9.6972,9.6972,0,0,1,409.2049,395.8743Z" transform="translate(-0.0004 0)"/><path class="cls-38" d="M351.0142,394.3421s15.3595,20.16,53.0824,5.6123l-10.6312-16.2568s-22.4123,5.7275-38.3442-6.3284Z" transform="translate(-0.0004 0)"/><path class="cls-42" d="M334.1733,386.2494l24.4882,26.5191c3.5214,2.3653,28.2-28.4441,23.4344-32.3552-.8406-.69-31.2842-33.1179-52.2579-33.8434C312.8032,345.9806,318.0754,370.39,334.1733,386.2494Z" transform="translate(-0.0004 0)"/><path class="cls-33" d="M267.2505,652.0479s10.0607,10.6178,21.6983,0" transform="translate(-0.0004 0)"/><path class="cls-33" d="M318.09,643.5591s9.75,6.9407,21.0465-1.0718" transform="translate(-0.0004 0)"/><path class="cls-7" d="M209.2323,40.6355c.3408,3.3253,2.5813,5.819,5.0043,5.57s4.111-3.1464,3.77-6.4717-2.5813-5.8191-5.0043-5.57S208.8915,37.31,209.2323,40.6355Z" transform="translate(-0.0004 0)"/><path class="cls-2" d="M221.6757,16.553s4.4441,22.968-19.1123,32.27c0,0-11.5873-12.0623-1.0253-34.54,9.31-19.8123,31.0027-9.3523,31.0027-9.3523Z" transform="translate(-0.0004 0)"/><path class="cls-7" d="M240.1255,43.0776c-.348-1.0676-2.0858-6.4654-2.0858-7.9181h1.7522a52.1854,52.1854,0,0,0,1.9994,7.3745Z" transform="translate(-0.0004 0)"/><path class="cls-31" d="M249.9862,669.4905s19.9386,19.475,26.5849,20.557a10.7161,10.7161,0,0,0,10.0467-3.2458" transform="translate(-0.0004 0)"/><path class="cls-31" d="M320.0034,675.6355s7.151,10.7775,16.8486,1.3315" transform="translate(-0.0004 0)"/><path class="cls-44" d="M239.1769,378.7387s1.3809,23.0657,20.8257,28.4035" transform="translate(-0.0004 0)"/><path class="cls-44" d="M351.0142,405.2289s25.9426-19.2645,22.5052-33.1077" transform="translate(-0.0004 0)"/><path class="cls-44" d="M284.1477,345.5266c.7818-.181,14.65,8.4187,25.1369-3.6347" transform="translate(-0.0004 0)"/><path class="cls-44" d="M174.6226,158.648s1.1541-8.6393,13.5673-8.5644" transform="translate(-0.0004 0)"/><path class="cls-44" d="M269.47,120.8025s9.0973,1.9343,13.47-13.1036" transform="translate(-0.0004 0)"/><path class="cls-38" d="M286.0381,317.3883c0,3.4678-1.8206,6.279-4.0663,6.279s-4.0663-2.8112-4.0663-6.279,1.82-6.279,4.0663-6.279S286.0381,313.9206,286.0381,317.3883Z" transform="translate(-0.0004 0)"/><path class="cls-26" d="M221.931,18.7408s-8.0442-10.0851-11.6334-11.167" transform="translate(-0.0004 0)"/><path class="cls-3" d="M36.871,504.1027c-6.1462,6.3254-18.2389,3.6252-20.5655-.9434L24.4546,317.71l38.67,5.727Z" transform="translate(-0.0004 0)"/><path class="cls-41" d="M88.17,529.7834c-5.0549,7.1719-16.0632,7.2174-19.1781,2.0374l-16.93-163.7064c-17.6288-4.51-27.7037-10.9235-28.4084-32.1586l18.61-18.0589H97.796Z" transform="translate(-0.0004 0)"/><path class="cls-45" d="M57.978,217.5512l-1.4746-.5472a9.6865,9.6865,0,0,1-5.6948-12.4149l10.42-28.0807a9.6866,9.6866,0,0,1,12.4149-5.6948l1.4746.5472a9.6866,9.6866,0,0,1,5.6948,12.415l-6.0458,28.4549C72.9191,217.2109,62.9581,219.3993,57.978,217.5512Z" transform="translate(-0.0004 0)"/><path class="cls-13" d="M21.2265,336.1917c.0932-24.9035-1.3519-59.6811.0511-86.3887,1.8057-48.04,4.3981-56.0552,30.773-53.272l7.0861,2.17a49.4666,49.4666,0,0,1,9.7895,4.209c32.8347,18.51,34.8152,22.7522,32.5937,42.7077-1.0879,32.9667-.41,59.7782-3.4233,90.7236C90.34,358.8735,28.2711,352.7893,21.2265,336.1917Z" transform="translate(-0.0004 0)"/><path class="cls-46" d="M76.69,207.3661S66.238,194.8648,49.4109,196.28C54.69,199.9127,69.2924,204.8936,76.69,207.3661Z" transform="translate(-0.0004 0)"/><path class="cls-45" d="M96.6387,175.1389c-.6192,17.9878-19.5706,18.4065-29.4008,9.7659s-13.77-24.7992-10.8255-39.5136,20.8808-22.4836,30.711-13.8429S97.1581,160.0487,96.6387,175.1389Z" transform="translate(-0.0004 0)"/><path class="cls-45" d="M93.96,159.1735s.1658,4.9616.11,8.0005c-.0274,1.4969-.2807,3.6249,1.141,4.094,1.23.4057,5.82-2.62,4.89-3.9763C97.453,163.428,93.96,159.1735,93.96,159.1735Z" transform="translate(-0.0004 0)"/><path class="cls-3" d="M97.1159,159.64l-3.5639,1.0682a1.0469,1.0469,0,0,1-1.3-.7h0a1.047,1.047,0,0,1,.7-1.3l3.564-1.0683a1.0469,1.0469,0,0,1,1.3.7h0A1.0469,1.0469,0,0,1,97.1159,159.64Z" transform="translate(-0.0004 0)"/><path class="cls-2" d="M48.1217,181.2023s2.2366,9.3049,12.1693,9.4638c13.9851.2238,9.2016-32.469,23.6609-37.58,7.5325-2.6627,13.498-12.7,6.9255-19.406s-11.9583-8.127-26.5554-3.9137C51.5633,133.449,26.2822,142.2987,48.1217,181.2023Z" transform="translate(-0.0004 0)"/><path class="cls-47" d="M72.5813,177.1451A6.6059,6.6059,0,1,1,75.0682,164.17l.0387.0075A36.8376,36.8376,0,0,0,72.5813,177.1451Z" transform="translate(-0.0004 0)"/><path class="cls-2" d="M76.2571,168.7808h0a2.5006,2.5006,0,0,1-2.378-2.6035l.5341-11.794a2.5006,2.5006,0,0,1,2.6035-2.3779h0a2.5,2.5,0,0,1,2.378,2.6034l-.5341,11.794A2.5006,2.5006,0,0,1,76.2571,168.7808Z" transform="translate(-0.0004 0)"/><path class="cls-45" d="M156.82,324.7107h0a8.6847,8.6847,0,0,0,1.8077,12.1109l10.1166,7.49a8.6844,8.6844,0,0,0,12.1123-1.8079h0a8.6848,8.6848,0,0,0-1.8076-12.1109l-10.1167-7.49A8.6843,8.6843,0,0,0,156.82,324.7107Z" transform="translate(-0.0004 0)"/><path class="cls-45" d="M157.6843,333.3136s-39.485-6.298-56.418-45.3414c-21.139-48.7412-27.3242-63.1571-27.3242-63.1571l33.3255,5.77s11.5569,49.0343,24.2288,65.4022c9.377,12.1119,31.8727,25.2364,31.8727,25.2364Z" transform="translate(-0.0004 0)"/><path class="cls-13" d="M83.765,211.666c26.6262,5.7221,23.8037,17.8523,39.8839,54.9807a7.9631,7.9631,0,0,1-1.95,9.0723c-9.72,8.8307-34.3785,27.0111-51.2808,2.6276-21.4649-30.9657-4.6619-61.593-4.6619-61.593Z" transform="translate(-0.0004 0)"/><path class="cls-11" d="M84.848,256.16l16.002,32.9636-2.493,47.2592c-1.9081,5.6791-7.1124,9.4143-14.6881,11.7511Z" transform="translate(-0.0004 0)"/><path class="cls-44" d="M21.1631,327.1764s43.2554,29.1545,77.6709.7662" transform="translate(-0.0004 0)"/><path class="cls-8" d="M101.5445,288.5974a64.9459,64.9459,0,0,0,20.6339-13.3181l1.5861,2.3262a42.8168,42.8168,0,0,1-21.0586,13.3986Z" transform="translate(-0.0004 0)"/><path class="cls-45" d="M178.8946,327.9292H164.8733a2.4239,2.4239,0,0,1-2.4168-2.4167h0a2.4241,2.4241,0,0,1,2.4168-2.4168h14.0213a2.4239,2.4239,0,0,1,2.4167,2.4168h0A2.4238,2.4238,0,0,1,178.8946,327.9292Z" transform="translate(-0.0004 0)"/><path class="cls-48" d="M510.1765,227.0287l-28.92-14.3619a6.912,6.912,0,0,1-3.6919-5.4865V178.5642c0-2.0092,1.6614-2.7862,3.6919-1.7266l28.92,15.0907a7.0662,7.0662,0,0,1,3.6919,5.4866v27.8872C513.8684,227.26,512.2071,228.0371,510.1765,227.0287Z" transform="translate(-0.0004 0)"/><path class="cls-49" d="M483.078,192.662c1.7452-.2905,4.6395.8579,8.4471,3.1471a9.7011,9.7011,0,0,1-1.1963-3.5279,3.1692,3.1692,0,0,0,.1208,2.6334,16.8617,16.8617,0,0,1-5.2206-4.792,6.9505,6.9505,0,0,0,1.849,2.7318c-2.2526-.6442-3.9078-.9106-4-.1924Zm7.7255-1.752c-1.6488-.846-3.2675-1.7171-4.9012-2.6457,1.4828.696,2.9666,1.3893,4.49,1.9862a14.7328,14.7328,0,0,1-3.2726-5.2033,13.9435,13.9435,0,0,0,4.5633,5.4756,19.4809,19.4809,0,0,1,3.9758,4.1982c-.09-2.3813.4808-3.7114,1.9331-3.4307-1.3789.9257-1.4732,3.489-1.1264,6.58a13.1879,13.1879,0,0,0-5.6623-6.9606Zm10.5521,7.7033c3.1478.6451,4.8594.4071,5.4989-1.3866a3.3932,3.3932,0,0,1-3.4878,1.04,6.7115,6.7115,0,0,0-4.177-.0122,7.0835,7.0835,0,0,0,.4078-3.0241c-.6281,3.4868-3.5488,1.9342-3.2769,6.4269.6415-2.3865,2.1931-3.6225,5.035-3.0438Zm1.7185,4.9234a16.6817,16.6817,0,0,1,4.2146,3.9455,20.3463,20.3463,0,0,0-5.3288-4.2488c1.0925-.4119,2.3128-.0541,3.6577,1.0522a3.4466,3.4466,0,0,0-2.5435-.7489Zm-1.8552,3.6956c-1.0728-.01-2.0568.0423-3.05-.0523v3.4561l-1.781-.8976v-3.5466a4.8338,4.8338,0,0,1,.9169-4.7317l-.1058-.8111a1.9615,1.9615,0,0,1,.7759,1.3765l-.0353,1.65a7.8712,7.8712,0,0,0,2.9447,2.3052,15.7485,15.7485,0,0,0,2.8741.9815,1.87,1.87,0,0,1,1.4106,1.1795,12.8149,12.8149,0,0,0-3.95-.91Zm-5.5014-2.8612v5.0125l-1.9925-1.0043v-4.8471c-2.3687-2.3539-4.6315-4.8136-7.4763-6.534-.0653-.5244.3181-.6414,1.04-.1112,2.2255,1.4986,4.834,3.6492,6.7181,3.1494a9.47,9.47,0,0,0-.0176-1.63c-.0917-.693.1387-1.036.8463-.86l-.0881.7132c1.165,2.559,1.4974,4.6.97,6.1116Zm-4.6533-5.2015a4.6,4.6,0,0,1-2.0859-1.8044,13.4393,13.4393,0,0,0-1.2474-1.7393c.48-.0014,1.03.3308,1.6078,1.1478a20.9882,20.9882,0,0,0,1.483,1.8715q-.6272-1.4173-1.2543-2.8358c.3465-.0433.7467.252,1.1919,1.1191.3617.7041.7086,1.3922,1.095,2.026a20.6158,20.6158,0,0,0-.3119-2.3455c.67.4248.9519,1.21,1.1435,2.6272a2.0435,2.0435,0,0,1,.6237.6572,5.6849,5.6849,0,0,1-2.2454-.7238Zm9.6535,6.5506a8.1287,8.1287,0,0,1-2.0595-1.4383.6205.6205,0,0,1,.5721-.0243c.1757-1.1366.4345-1.6,1.0488-1.3631a12.6376,12.6376,0,0,0-.2861,1.8837,7.0821,7.0821,0,0,0,1.0044-.85.6721.6721,0,0,1,1.0932.0853q-.5751.7233-1.1505,1.4477a5.0643,5.0643,0,0,0,1.36-.34,1.3174,1.3174,0,0,1,1.4746.45,2.9834,2.9834,0,0,0-1.1441.4361c-.4783.2643-1.0732.1927-1.9129-.2873Z" transform="translate(-0.0004 0)"/><path class="cls-50" d="M483.078,192.662c1.7452-.2905,4.6395.8579,8.4471,3.1471a9.7011,9.7011,0,0,1-1.1963-3.5279,3.1692,3.1692,0,0,0,.1208,2.6334,16.8617,16.8617,0,0,1-5.2206-4.792,6.9505,6.9505,0,0,0,1.849,2.7318c-2.2526-.6442-3.9078-.9106-4-.1924Zm7.7255-1.752c-1.6488-.846-3.2675-1.7171-4.9012-2.6457,1.4828.696,2.9666,1.3893,4.49,1.9862a14.7328,14.7328,0,0,1-3.2726-5.2033,13.9435,13.9435,0,0,0,4.5633,5.4756,19.4809,19.4809,0,0,1,3.9758,4.1982c-.09-2.3813.4808-3.7114,1.9331-3.4307-1.3789.9257-1.4732,3.489-1.1264,6.58a13.1879,13.1879,0,0,0-5.6623-6.9606Zm10.5521,7.7033c3.1478.6451,4.8594.4071,5.4989-1.3866a3.3932,3.3932,0,0,1-3.4878,1.04,6.7115,6.7115,0,0,0-4.177-.0122,7.0835,7.0835,0,0,0,.4078-3.0241c-.6281,3.4868-3.5488,1.9342-3.2769,6.4269.6415-2.3865,2.1931-3.6225,5.035-3.0438Zm1.7185,4.9234a16.6817,16.6817,0,0,1,4.2146,3.9455,20.3463,20.3463,0,0,0-5.3288-4.2488c1.0925-.4119,2.3128-.0541,3.6577,1.0522a3.4466,3.4466,0,0,0-2.5435-.7489Zm-1.8552,3.6956c-1.0728-.01-2.0568.0423-3.05-.0523v3.4561l-1.781-.8976v-3.5466a4.8338,4.8338,0,0,1,.9169-4.7317l-.1058-.8111a1.9615,1.9615,0,0,1,.7759,1.3765l-.0353,1.65a7.8712,7.8712,0,0,0,2.9447,2.3052,15.7485,15.7485,0,0,0,2.8741.9815,1.87,1.87,0,0,1,1.4106,1.1795,12.8149,12.8149,0,0,0-3.95-.91Zm-5.5014-2.8612v5.0125l-1.9925-1.0043v-4.8471c-2.3687-2.3539-4.6315-4.8136-7.4763-6.534-.0653-.5244.3181-.6414,1.04-.1112,2.2255,1.4986,4.834,3.6492,6.7181,3.1494a9.47,9.47,0,0,0-.0176-1.63c-.0917-.693.1387-1.036.8463-.86l-.0881.7132c1.165,2.559,1.4974,4.6.97,6.1116Zm-4.6533-5.2015a4.6,4.6,0,0,1-2.0859-1.8044,13.4393,13.4393,0,0,0-1.2474-1.7393c.48-.0014,1.03.3308,1.6078,1.1478a20.9882,20.9882,0,0,0,1.483,1.8715q-.6272-1.4173-1.2543-2.8358c.3465-.0433.7467.252,1.1919,1.1191.3617.7041.7086,1.3922,1.095,2.026a20.6158,20.6158,0,0,0-.3119-2.3455c.67.4248.9519,1.21,1.1435,2.6272a2.0435,2.0435,0,0,1,.6237.6572,5.6849,5.6849,0,0,1-2.2454-.7238Zm9.6535,6.5506a8.1287,8.1287,0,0,1-2.0595-1.4383.6205.6205,0,0,1,.5721-.0243c.1757-1.1366.4345-1.6,1.0488-1.3631a12.6376,12.6376,0,0,0-.2861,1.8837,7.0821,7.0821,0,0,0,1.0044-.85.6721.6721,0,0,1,1.0932.0853q-.5751.7233-1.1505,1.4477a5.0643,5.0643,0,0,0,1.36-.34,1.3174,1.3174,0,0,1,1.4746.45,2.9834,2.9834,0,0,0-1.1441.4361c-.4783.2643-1.0732.1927-1.9129-.2873Z" transform="translate(-0.0004 0)"/><path class="cls-51" d="M487,189.3343l.38.9285.7714.4913-.5873.2814.1476.8306-.7426-.7537-.68.023.1284-.7484-.5681-.8174.822.2921.3291-.5274Zm1.4987-5.7783.38.9295.7713.4947-.5873.2781.1477.8306-.7427-.7568-.68.0195.1283-.747-.5679-.82.8219.296.3291-.5251Zm9.7171,9.5349.3168.77.6434.41-.49.23.1232.6881-.62-.6273-.5675.0158.1071-.6188-.4739-.6791.6858.2456.2745-.4349Zm-6.634-4.8711.2252.55.4574.2924-.3483.1649.0876.4914-.44-.4476-.4033.0117.0761-.4419-.3368-.4846.4874.1748.1951-.3109Zm4.1661,1.206.25.61.5084.3252-.3871.1819.0973.5449-.49-.4971-.4484.012.0846-.49-.3744-.5379.5418.195.217-.3441Zm9.6211,4.8183.25.6066.5085.3248-.3871.1793.0973.5415-.4895-.4955-.4484.01.0846-.4859-.3744-.5356.5418.1955.217-.3409Zm2.2276,4.038.25.6054.5084.3236-.3871.1794.0974.5406-.49-.4942-.4483.0109.0845-.4854-.3744-.5342.5419.1945.2169-.3406Zm-14.2109-4.4081.2313.5635.47.2987-.3578.17.09.5041-.4524-.458-.4144.0131.0782-.4537-.346-.4963.5007.178.2-.32Zm-9.2178-.69.25.6122.5085.3221-.3871.1877.0973.5483-.49-.4958-.4484.0171.0847-.4946-.3745-.5381.5418.19.217-.3493Zm.1059-3.3989.3168.7754.6434.4091-.49.2364.1232.6941-.62-.6288-.5675.02.1071-.6257-.4738-.6821.6857.2426.2745-.4414Zm15.7856,10.3386.3357.814.6821.4317-.5193.2455.1306.728-.6567-.6616-.6014.0189.1135-.6554-.5022-.717.7267.2573Zm5.934,1.2856.31.75.63.4-.48.2244.1208.6707-.6073-.6113-.556.0155.1049-.603-.4643-.6617.6719.2392.2692-.4239Zm-.1335,4.8041.26.6283.5285.3332-.4024.19.1012.5619-.509-.5107-.4661.0145.088-.5058-.3893-.5534.5633.1986.2255-.3562Zm-4.93-10.8381.215.522.4368.2782-.3326.1558.0837.4664-.4206-.4254-.3852.01.0726-.4192-.3216-.46.4655.1666.1864-.2946Zm.7489-1.6311.1952.4739.3965.253-.3019.1408.0759.4233-.3818-.3866-.35.0088.066-.38-.292-.418.4225.1519.1691-.267Zm-3.764,1.63.1952.4743.3963.2521-.3017.1424.0759.4241-.3818-.3861-.35.01.066-.3814-.2919-.418.4224.1507.1692-.2683Zm5.6267.5646.1952.4732.3965.2526-.3019.1407.0759.4227-.3817-.386-.35.0088.0661-.38-.2919-.4175.4224.1517.1691-.2667ZM499.47,190.787l.1952.4747.3965.2536-.3019.1409.0759.4239-.3818-.3874-.35.0087.066-.3807-.2919-.4188.4225.1524.1691-.2673Zm-5.9506,4.9686.1853.4511.3764.2389-.2866.1366.0721.4037-.3624-.3665-.332.0108.0626-.3634-.2771-.3972.4011.1421.1606-.2561Zm9.4265,4.001.1952.4727.3965.2515-.3019.1417.0759.4226-.3818-.3849-.35.01.066-.38-.2919-.4167.4224.15.1692-.2672Zm4.3242,4.9588.25.6044.5085.3213-.3872.1814.0973.54-.49-.4919-.4484.013.0846-.4859-.3744-.5326.5419.192.2169-.3419Zm-20.4476-10.0645.2345.5726.4763.3017-.3626.1752.0911.5128-.4586-.464-.42.0156.0792-.4625-.3507-.5035.5076.1786Z" transform="translate(-0.0004 0)"/><g class="cls-52"><path class="cls-50" d="M487,189.3343l.38.9285.7714.4913-.5873.2814.1476.8306-.7426-.7537-.68.023.1284-.7484-.5681-.8174.822.2921.3291-.5274Zm1.4987-5.7783.38.9295.7713.4947-.5873.2781.1477.8306-.7427-.7568-.68.0195.1283-.747-.5679-.82.8219.296.3291-.5251Zm9.7171,9.5349.3168.77.6434.41-.49.23.1232.6881-.62-.6273-.5675.0158.1071-.6188-.4739-.6791.6858.2456.2745-.4349Zm-6.634-4.8711.2252.55.4574.2924-.3483.1649.0876.4914-.44-.4476-.4033.0117.0761-.4419-.3368-.4846.4874.1748.1951-.3109Zm4.1661,1.206.25.61.5084.3252-.3871.1819.0973.5449-.49-.4971-.4484.012.0846-.49-.3744-.5379.5418.195.217-.3441Zm9.6211,4.8183.25.6066.5085.3248-.3871.1793.0973.5415-.4895-.4955-.4484.01.0846-.4859-.3744-.5356.5418.1955.217-.3409Zm2.2276,4.038.25.6054.5084.3236-.3871.1794.0974.5406-.49-.4942-.4483.0109.0845-.4854-.3744-.5342.5419.1945.2169-.3406Zm-14.2109-4.4081.2313.5635.47.2987-.3578.17.09.5041-.4524-.458-.4144.0131.0782-.4537-.346-.4963.5007.178.2-.32Zm-9.2178-.69.25.6122.5085.3221-.3871.1877.0973.5483-.49-.4958-.4484.0171.0847-.4946-.3745-.5381.5418.19.217-.3493Zm.1059-3.3989.3168.7754.6434.4091-.49.2364.1232.6941-.62-.6288-.5675.02.1071-.6257-.4738-.6821.6857.2426.2745-.4414Zm15.7856,10.3386.3357.814.6821.4317-.5193.2455.1306.728-.6567-.6616-.6014.0189.1135-.6554-.5022-.717.7267.2573Zm5.934,1.2856.31.75.63.4-.48.2244.1208.6707-.6073-.6113-.556.0155.1049-.603-.4643-.6617.6719.2392.2692-.4239Zm-.1335,4.8041.26.6283.5285.3332-.4024.19.1012.5619-.509-.5107-.4661.0145.088-.5058-.3893-.5534.5633.1986.2255-.3562Zm-4.93-10.8381.215.522.4368.2782-.3326.1558.0837.4664-.4206-.4254-.3852.01.0726-.4192-.3216-.46.4655.1666.1864-.2946Zm.7489-1.6311.1952.4739.3965.253-.3019.1408.0759.4233-.3818-.3866-.35.0088.066-.38-.292-.418.4225.1519.1691-.267Zm-3.764,1.63.1952.4743.3963.2521-.3017.1424.0759.4241-.3818-.3861-.35.01.066-.3814-.2919-.418.4224.1507.1692-.2683Zm5.6267.5646.1952.4732.3965.2526-.3019.1407.0759.4227-.3817-.386-.35.0088.0661-.38-.2919-.4175.4224.1517.1691-.2667ZM499.47,190.787l.1952.4747.3965.2536-.3019.1409.0759.4239-.3818-.3874-.35.0087.066-.3807-.2919-.4188.4225.1524.1691-.2673Zm-5.9506,4.9686.1853.4511.3764.2389-.2866.1366.0721.4037-.3624-.3665-.332.0108.0626-.3634-.2771-.3972.4011.1421.1606-.2561Zm9.4265,4.001.1952.4727.3965.2515-.3019.1417.0759.4226-.3818-.3849-.35.01.066-.38-.2919-.4167.4224.15.1692-.2672Zm4.3242,4.9588.25.6044.5085.3213-.3872.1814.0973.54-.49-.4919-.4484.013.0846-.4859-.3744-.5326.5419.192.2169-.3419Zm-20.4476-10.0645.2345.5726.4763.3017-.3626.1752.0911.5128-.4586-.464-.42.0156.0792-.4625-.3507-.5035.5076.1786Z" transform="translate(-0.0004 0)"/></g><path class="cls-53" d="M488.109,209.2724a5.2132,5.2132,0,0,0-.7305-.8,3.8407,3.8407,0,0,0-.81-.5512,1.48,1.48,0,0,0-1.3359-.1516,1.0974,1.0974,0,0,0-.5154,1.0867,2.8451,2.8451,0,0,0,.5014,1.568,3.2083,3.2083,0,0,0,1.2646,1.15,2.557,2.557,0,0,0,.8474.268,1.7264,1.7264,0,0,0,.7713-.0821v.9046a1.7479,1.7479,0,0,1-.7152-.01,3.4052,3.4052,0,0,1-.838-.3031,4.9647,4.9647,0,0,1-1.0625-.715,5.1111,5.1111,0,0,1-.8579-.9746,4.6329,4.6329,0,0,1-.5633-1.1158,3.4825,3.4825,0,0,1-.1964-1.1217,1.98,1.98,0,0,1,.1964-.9217,1.2014,1.2014,0,0,1,.57-.5519,1.5489,1.5489,0,0,1,.8555-.1215,3.1367,3.1367,0,0,1,1.0437.3368,4.5847,4.5847,0,0,1,.8416.5491,6.0182,6.0182,0,0,1,.7772.7737l-.0444.7836Zm4.0755,4.2756-2.5947-1.2969a1.6831,1.6831,0,0,0,.2712.8337,1.6236,1.6236,0,0,0,.6475.5743,1.1086,1.1086,0,0,0,.5984.151.6074.6074,0,0,0,.4184-.2687l.6242.6541a.9374.9374,0,0,1-.6779.3761,1.837,1.837,0,0,1-.9479-.2379,3.1451,3.1451,0,0,1-1.2436-1.0871,2.6363,2.6363,0,0,1-.4617-1.4775,1.0042,1.0042,0,0,1,.4781-.9929,1.3525,1.3525,0,0,1,1.2272.1333,3.0963,3.0963,0,0,1,1.2226,1.0523,2.56,2.56,0,0,1,.4382,1.4488Zm-.7714-.8735a1.3146,1.3146,0,0,0-.2664-.6544,1.7127,1.7127,0,0,0-.609-.4848.86.86,0,0,0-.5891-.1206.4849.4849,0,0,0-.3108.3718l1.7753.888Zm1.544,2.7423v-3.1781l.6989.35v.5215a.7232.7232,0,0,1,.5236-.2179,1.7133,1.7133,0,0,1,.734.2169,2.6039,2.6039,0,0,1,.6183.4218,1.86,1.86,0,0,1,.3985.533,1.4547,1.4547,0,0,1,.1239.3668,3.7071,3.7071,0,0,1,.0375.6272v1.922l-.75-.3743v-1.6286a1.9848,1.9848,0,0,0-.1554-.9092,1.2321,1.2321,0,0,0-.554-.483,1.1614,1.1614,0,0,0-.4641-.1386.419.419,0,0,0-.32.1038.41.41,0,0,0-.1145.2365,3.1523,3.1523,0,0,0-.0328.5542v1.4464l-.7433-.3707Zm4.2976,2.1435v-2.5319l-.568-.2844v-.6367l.568.2846v-1.1975l.7434.3731v1.1969l.568.2846v.6358l-.568-.2843v2.5306Zm5.0784,1.06-2.5947-1.2969a1.6679,1.6679,0,0,0,.2712.8288,1.6266,1.6266,0,0,0,.6475.5724,1.1174,1.1174,0,0,0,.5984.1521.6045.6045,0,0,0,.4184-.2652l.6241.6515a.9337.9337,0,0,1-.6778.371,1.8494,1.8494,0,0,1-.9479-.24,3.1548,3.1548,0,0,1-1.2436-1.0837,2.6124,2.6124,0,0,1-.4617-1.4685.9913.9913,0,0,1,.478-.9841,1.3621,1.3621,0,0,1,1.2273.1368,3.1067,3.1067,0,0,1,1.2226,1.0491,2.5349,2.5349,0,0,1,.4382,1.44v.1367Zm-.7714-.87a1.3045,1.3045,0,0,0-.2664-.6507,1.719,1.719,0,0,0-.609-.4835.8671.8671,0,0,0-.5891-.1219.48.48,0,0,0-.3109.3681l1.7754.888Zm1.5791,2.7456v-5.1586l.7433.3734v5.1559Zm1.8384.917V216.261l.7433.3735v5.1491Zm1.74-3.6385a.246.246,0,0,1,.1391-.2462.3757.3757,0,0,1,.3308.0337.8683.8683,0,0,1,.3307.294.6866.6866,0,0,1,.1321.3867.2561.2561,0,0,1-.1332.257.3726.3726,0,0,1-.33-.0341.8773.8773,0,0,1-.3309-.3007.7.7,0,0,1-.1391-.39Zm.0982,4.5554V219.183l.7435.3724v3.1452Z" transform="translate(-0.0004 0)"/></g></g></svg>