<svg xmlns="http://www.w3.org/2000/svg" viewBox="0 0 487.4727 302"><defs><style>.cls-1{isolation:isolate;}.cls-2{fill:#ececec;mix-blend-mode:multiply;}.cls-3{fill:#921710;}.cls-4{fill:#fc3a6c;}.cls-5{fill:#cb1517;}.cls-6{fill:#286c9b;}.cls-7{fill:#3087c2;}.cls-8{fill:#559dcd;}.cls-9{fill:#871937;}</style></defs><g class="cls-1"><g id="Layer_2" data-name="Layer 2"><g id="Testimonial"><path class="cls-2" d="M265.9906,282.0165l10.3172,11.7994q-30.1705,9.7914-57.3422,7.8666a120.6518,120.6518,0,0,1-52.2818-16.4276l-26.58-15.3461q-17.42-10.0572-33.5971-10.0077c-4.7257.0145-7.7521,7.617-7.7521,7.617l-22.2331-1.7244-16.38-9.4573q28.1319-16.3485-4.1908-35.0137l-27.7811-16.04Q3.9877,191.0181.5728,175.5933t13.5279-33.1627l20.404,5.9375q-18.79,21.2884,18.88,43.0334l26.9836,15.579q30.3193,17.505,20.05,37.2475,34.1811-5.9388,64.77,11.7233l27.5152,15.886Q229.8369,292.812,265.9906,282.0165Z"/><path class="cls-3" d="M47.4975,162.5419l.09-31.8957q.02-7.1118,6.2535-14.1737l-.09,31.8956Q47.5176,155.43,47.4975,162.5419Z"/><path class="cls-3" d="M75.2867,189.4271,47.5056,173.3877q-24.1812-14.2654-27.5961-29.69a24.1706,24.1706,0,0,1-.5728-5.31l-.09,31.8957a24.1772,24.1772,0,0,0,.5727,5.31q3.41,15.4219,27.5962,29.69l27.7811,16.04q17.31,9.9938,17.2828,19.3242l.09-31.8956Q92.5959,199.4211,75.2867,189.4271Z"/><path class="cls-4" d="M122.3533,202.5366l-.09,31.8956a21.2475,21.2475,0,0,1-2.5985,9.7958l.09-31.8957A21.2444,21.2444,0,0,0,122.3533,202.5366Z"/><polygon class="cls-3" points="98.845 235.623 98.754 267.518 79.387 256.336 79.478 224.441 98.845 235.623"/><path class="cls-5" d="M285.3272,250.1209,295.6445,261.92q-30.1705,9.7914-57.3422,7.8665a120.65,120.65,0,0,1-52.2818-16.4276l-26.58-15.346q-32.4573-18.7392-60.5955-2.3907L79.4775,224.4407q28.1319-16.3483-4.1908-35.0136l-27.7811-16.04q-24.1812-14.2651-27.5961-29.69t13.5278-33.1628l20.4041,5.9376q-18.79,21.2885,18.8794,43.0334l26.9837,15.579q30.3192,17.5048,20.05,37.2474,34.1813-5.9387,64.77,11.7234L212.04,239.9416Q249.1736,260.9164,285.3272,250.1209Z"/><path class="cls-3" d="M238.3022,269.7868a120.65,120.65,0,0,1-52.2817-16.4276l-26.58-15.346q-32.4572-18.7392-60.5955-2.3908l-.09,31.8957q28.1319-16.3485,60.5955,2.3908l26.58,15.346a120.651,120.651,0,0,0,52.2817,16.4276q27.1718,1.93,57.3422-7.8665l.09-31.8957Q265.474,271.7116,238.3022,269.7868Z"/><polygon class="cls-2" points="364.357 187.962 348.69 187.962 322.929 173.089 348.69 158.216 364.357 187.962"/><polygon class="cls-6" points="364.357 154.365 364.357 187.962 338.597 173.089 338.597 139.492 364.357 154.365"/><polygon class="cls-7" points="390.51 139.638 364.357 154.365 338.597 139.492 364.357 124.619 390.51 139.638"/><polygon class="cls-8" points="390.51 173.235 364.357 187.962 364.357 154.365 390.51 139.638 390.51 173.235"/><polygon class="cls-2" points="311.898 218.518 296.23 218.518 270.47 203.645 296.23 188.772 311.898 218.518"/><polygon class="cls-6" points="311.898 184.921 311.898 218.518 286.137 203.645 286.137 170.048 311.898 184.921"/><polygon class="cls-7" points="338.051 170.194 311.898 184.921 286.137 170.048 311.898 155.175 338.051 170.194"/><polygon class="cls-8" points="338.051 203.791 311.898 218.518 311.898 184.921 338.051 170.194 338.051 203.791"/><polygon class="cls-2" points="258.978 249.073 243.311 249.073 217.551 234.2 243.311 219.326 258.978 249.073"/><polygon class="cls-6" points="258.978 215.476 258.978 249.073 233.218 234.2 233.218 200.603 258.978 215.476"/><polygon class="cls-7" points="285.132 200.749 258.978 215.476 233.218 200.603 258.978 185.73 285.132 200.749"/><polygon class="cls-8" points="285.132 234.346 258.978 249.073 258.978 215.476 285.132 200.749 285.132 234.346"/><path class="cls-2" d="M412.3631,78.7149q-28.1367,16.3512,4.3253,35.0913l26.98,15.5772q25.1116,14.4981,28.1992,30.1929c1.8792,9.5864,1.57,31.97,1.57,31.97l-15.0318,1.0758-20.5346-5.8617q18.2527-20.67-16.3468-41.7224l-29.3858-16.9658q-30.8573-17.8155-18.0544-38.2515-34.9759,7.6362-66.0992-10.3347l-27.115-15.6548q-27.5815-15.9243-54.6345-14.3157a6.0532,6.0532,0,0,0-4.6879,2.4449l-16.705-.8378-8.644-9.8858q30.1658-9.7942,57.0064-7.9831a119.4454,119.4454,0,0,1,51.6792,16.0023l28.05,16.1948q31.9287,18.4341,60.0606,2.0819Z"/><polygon class="cls-9" points="221.639 20.065 221.548 51.961 211.231 40.161 211.322 8.266 221.639 20.065"/><path class="cls-3" d="M414.3318,93.3091l.0905-31.8956q.0229-8.0916,13.063-15.67l-.09,31.8956Q414.3543,85.2175,414.3318,93.3091Z"/><path class="cls-3" d="M323.1079,46.515,295.993,30.86q-37.67-21.7486-74.3542-10.7951l-.09,31.8957Q258.2344,41.01,295.9026,62.7557l27.1149,15.6549q31.1264,17.9709,66.0992,10.3346l.09-31.8956Q354.2313,64.4858,323.1079,46.515Z"/><path class="cls-3" d="M436.6473,112.067,407.2616,95.1011Q385.4135,82.4872,385.4524,68.56l-.09,31.8957q-.0395,13.9277,21.8092,26.5414l29.3857,16.9658q22.69,13.8071,22.6506,27.4464l.0905-31.8957Q459.3366,125.8732,436.6473,112.067Z"/><path class="cls-3" d="M487.4726,131.6422l-.09,31.8956q-.0381,13.4181-13.9439,28.0089l.09-31.8956Q487.4346,145.06,487.4726,131.6422Z"/><path class="cls-5" d="M427.4853,45.7434q-28.1367,16.3512,4.3254,35.0914l26.98,15.5771Q483.9026,110.91,486.99,126.6048q3.0765,15.6937-13.4615,33.0463l-20.5346-5.8617q18.2527-20.67-16.3468-41.7224L407.2616,95.1011Q376.4042,77.2856,389.2071,56.85q-34.9758,7.6362-66.0992-10.3346L295.993,30.86q-37.67-21.7486-74.3542-10.795L211.3216,8.2657q30.1658-9.7943,57.0063-7.983A119.4427,119.4427,0,0,1,320.0072,16.285l28.05,16.1947q31.9289,18.4341,60.0606,2.0819Z"/><polygon class="cls-9" points="473.529 159.651 473.438 191.547 452.904 185.685 452.994 153.789 473.529 159.651"/></g></g></g></svg>