<svg xmlns="http://www.w3.org/2000/svg" xmlns:xlink="http://www.w3.org/1999/xlink" viewBox="0 0 363.3036 393.7974"><defs><style>.cls-1{fill:url(#Œ_ƒΩ_11);}.cls-2{fill:#eaf6fb;}.cls-3{clip-path:url(#clip-path);}.cls-4{fill:#6ac5df;}.cls-5{fill:#fff;}.cls-6{fill:#4555a0;}.cls-7{fill:#1f2644;}.cls-8{fill:#925f36;}.cls-9{fill:#1f3c89;}.cls-10{fill:#37519e;}.cls-11{fill:url(#linear-gradient);}.cls-12{fill:url(#linear-gradient-2);}.cls-13{fill:url(#linear-gradient-3);}.cls-14{fill:#7d522e;}.cls-15{fill:url(#linear-gradient-4);}.cls-16{fill:#a8c4e5;}.cls-17{fill:#e1eaf4;}.cls-18{fill:#d9d9d9;}</style><linearGradient id="Œ_ƒΩ_11" x1="-1.6467" y1="181.638" x2="87.6456" y2="181.638" gradientTransform="matrix(-1, 0, 0, 1, 359.8642, 0)" gradientUnits="userSpaceOnUse"><stop offset="0" stop-color="#6f9ef6"/><stop offset="1" stop-color="#9ec2ff"/></linearGradient><clipPath id="clip-path"><path class="cls-1" d="M361.5107,166.55l-.2073-73.1546c.0886,31.285-28.5758,68.5353-81.4632,99.07-2.509,1.4485-5.0609,2.872-7.6216,4.26l.2075,73.1548c2.56-1.3884,5.1125-2.8119,7.6215-4.26C332.935,235.0856,361.5994,197.8351,361.5107,166.55Z"/></clipPath><linearGradient id="linear-gradient" x1="-8596.7109" y1="138.6825" x2="-8551.6488" y2="138.6825" gradientTransform="translate(8726.2219)" gradientUnits="userSpaceOnUse"><stop offset="0" stop-color="#223354"/><stop offset="0.3349" stop-color="#1f2f4d"/><stop offset="0.8163" stop-color="#17233a"/><stop offset="1" stop-color="#131d31"/></linearGradient><linearGradient id="linear-gradient-2" x1="-8527.9561" y1="195.7376" x2="-8527.9561" y2="54.2094" xlink:href="#linear-gradient"/><linearGradient id="linear-gradient-3" x1="-133.4098" y1="191.6786" x2="-79.0505" y2="85.528" gradientTransform="matrix(-1, 0, 0, 1, 33.7558, 0)" xlink:href="#linear-gradient"/><linearGradient id="linear-gradient-4" x1="195.7778" y1="117.5864" x2="235.8809" y2="117.5864" gradientTransform="matrix(1, 0, 0, 1, 0, 0)" xlink:href="#linear-gradient"/></defs><g id="Layer_2" data-name="Layer 2"><g id="Header"><path class="cls-2" d="M83.465,196.8294c83.3764-48.1374,195.363-61.3543,250.1491-29.5161,54.7774,31.8333,31.6027,96.6617-51.7739,144.7993-2.509,1.4485-5.0609,2.8719-7.6216,4.26L347.64,350.3514l-77.4187,2.8824c2.4369,10.6747-3.4339,21.8607-17.64,30.0625-24.2513,14.0014-63.57,14.0016-87.8214,0-12.1729-7.0279-18.2315-16.2478-18.1839-25.4591l-24.0018.8936c-36.0057,1.4734-68.312-3.9851-90.8838-17.1023C-23.0949,309.79.0971,244.9618,83.465,196.8294Z"/><path class="cls-1" d="M361.5107,166.55l-.2073-73.1546c.0886,31.285-28.5758,68.5353-81.4632,99.07-2.509,1.4485-5.0609,2.872-7.6216,4.26l.2075,73.1548c2.56-1.3884,5.1125-2.8119,7.6215-4.26C332.935,235.0856,361.5994,197.8351,361.5107,166.55Z"/><g class="cls-3"><path class="cls-4" d="M272.2186,196.7257l.2075,73.1547c2.56-1.3883,5.1125-2.8118,7.6215-4.26,52.8874-30.5344,81.5518-67.7849,81.4631-99.07l-.2073-73.1546c.0886,31.285-28.5758,68.5353-81.4632,99.07-2.509,1.4485-5.0609,2.872-7.6216,4.26"/></g><path class="cls-4" d="M.1216,179.6016l.0037.04c.07.9845.1786,1.96.3075,2.9309.0257.1938.05.388.0779.5812q.1992,1.37.4792,2.72c.1851.8975.409,1.7853.647,2.6694.0665.2471.116.4986.1867.7446q.4843,1.6874,1.1005,3.3392c.1268.3406.28.6736.4153,1.0118.2928.7333.5873,1.4661.9193,2.188.1894.4116.4054.8151.6075,1.2229.3166.6384.633,1.2768.981,1.9058.2307.417.4846.827.7293,1.24.37.6245.7458,1.2476,1.148,1.862.2778.4243.5725.8431.8655,1.2624.4119.5893.8339,1.1755,1.2761,1.7547.4668.6118.9381,1.222,1.4388,1.8222.097.1166.1891.2347.2877.3507.6764.7974,1.3886,1.5822,2.1256,2.3582.1663.1753.336.3493.5055.5234.7643.7851,1.5488,1.5628,2.3761,2.3247.069.0636.1459.1244.2155.1879q1.2525,1.1435,2.5968,2.2523c.3336.274.6925.5379,1.0349.8085.6576.52,1.3138,1.04,2.0039,1.5461.42.3087.8652.6073,1.2976.9109.6479.4552,1.294.9113,1.9694,1.3555.4775.3141.9774.6191,1.4686.9276.8243.5177,1.6418,1.0382,2.5045,1.54,1.5047.8745,3.0594,1.7093,4.6488,2.5159.5242.266,1.0723.5121,1.6053.7709,1.0861.5267,2.1764,1.05,3.2988,1.5463.6507.2877,1.3208.5591,1.9834.8367,1.044.4375,2.0937.87,3.1665,1.2823.718.2759,1.4486.54,2.1792.8047q1.59.5757,3.2155,1.119,1.2812.4253,2.5833.831c.7007.2164,1.4038.4306,2.1144.6378.994.29,2.0013.5666,3.0143.8381.704.1888,1.4061.3794,2.1192.5592,1.0707.27,2.1583.5229,3.2487.773.6789.1558,1.3515.318,2.0378.4661,1.2335.266,2.4875.51,3.7443.7517.5632.1081,1.1165.2266,1.6842.33.431.0783.8751.1419,1.3088.2174q2.7552.48,5.5765.8853c.7567.1081,1.5221.2058,2.2857.3056q2.4351.3186,4.9157.5818c.8009.085,1.6.172,2.4077.2484,1.5145.1429,3.0462.2639,4.5839.3768.7616.0559,1.516.121,2.2832.1694q3.1711.2007,6.4024.3177c.1973.007.39.0208.5877.0274q3.5357.1194,7.1409.1336c.75.0043,1.51-.0085,2.2642-.0108,1.6665-.0049,3.3379-.0177,5.0232-.054,1.8122-.039,3.628-.0837,5.46-.1586l225.0656-8.38.2074,73.1546-225.0656,8.38q-2.2514.0921-4.4829.1481c-.3273.0081-.6468.0034-.9734.01-1.6876.0362-3.3612.0493-5.03.0543-.7531.0022-1.5121.0148-2.2611.0107q-3.6007-.02-7.141-.1336l-.0541-.001c-.18-.0061-.354-.02-.5334-.0265q-3.2311-.1168-6.4026-.3176c-.7671-.0484-1.5212-.1136-2.283-.17-1.538-.1128-3.0694-.2337-4.5841-.3767-.3338-.0316-.6776-.05-1.01-.0831-.4725-.0469-.9272-.1155-1.3973-.1654q-2.4811-.2631-4.9158-.5818c-.7638-.1-1.5288-.1974-2.2856-.3055q-2.8234-.4032-5.5767-.8852c-.3449-.06-.7041-.1044-1.0474-.1663-.0881-.0159-.1732-.0352-.2613-.0513-.5677-.103-1.121-.2216-1.6841-.33-1.2569-.2414-2.511-.4856-3.7444-.7517-.6864-.148-1.3588-.31-2.0378-.4661-1.09-.25-2.1779-.5029-3.2487-.773-.7126-.18-1.414-.37-2.1177-.5588-1.0146-.2719-2.0232-.5491-3.0187-.8393-.7084-.2065-1.4088-.42-2.1073-.6358-.4888-.1512-.9913-.2893-1.4752-.445-.38-.1221-.7385-.2631-1.115-.3881q-1.6272-.54-3.2119-1.1178c-.7312-.2648-1.462-.5292-2.18-.8053-1.0724-.4121-2.1213-.8442-3.1647-1.2814-.6633-.2779-1.3337-.5493-1.985-.8373-1.1242-.4973-2.2164-1.021-3.304-1.5489-.5308-.2576-1.0766-.5028-1.5986-.7675-1.59-.8069-3.145-1.6419-4.65-2.5165q-.517-.3006-1.0248-.6049c-.5089-.305-.9847-.6239-1.48-.9347-.4913-.3086-.991-.6135-1.4685-.9276-.6754-.4443-1.3215-.9-1.97-1.3556-.4324-.3037-.8773-.6022-1.2976-.9107-.69-.5068-1.3462-1.0267-2.0038-1.5463-.3424-.27-.7012-.5345-1.0348-.8085q-1.3482-1.1072-2.5969-2.2523c-.07-.0635-.1465-.1241-.2155-.1877l-.0111-.01c-.8233-.7587-1.604-1.5334-2.3649-2.3152-.17-.1741-.3392-.3481-.5056-.5232-.737-.7762-1.4492-1.5609-2.1257-2.3584-.0984-.1159-.19-.2342-.2875-.3506-.34-.4071-.6814-.8137-1.0056-1.2262-.1536-.1957-.2832-.3993-.4333-.596-.4422-.5794-.8643-1.1653-1.2762-1.7547-.293-.4194-.5876-.8381-.8654-1.2624-.4023-.6146-.7776-1.2374-1.148-1.862-.178-.3-.3812-.5922-.5517-.8948-.064-.1135-.1146-.2312-.1777-.3451-.3481-.6288-.6643-1.2672-.9809-1.9058-.2022-.4077-.4181-.8113-.6074-1.2229-.3322-.7219-.6267-1.4546-.9194-2.1878-.1208-.3023-.2651-.5979-.379-.9021-.0137-.0361-.0227-.0735-.0363-.11q-.6145-1.652-1.1006-3.3391c-.0707-.2461-.12-.4977-.1867-.7448-.2379-.884-.4617-1.7717-.6468-2.6692-.0177-.0853-.0443-.1681-.0614-.2534-.1636-.8162-.2977-1.64-.4179-2.4664-.0281-.1931-.0521-.3874-.0779-.5811-.1289-.9709-.2377-1.9465-.3076-2.9308l-.0035-.04q-.072-1.0269-.1016-2.0634-.018-.6413-.02-1.286L0,176.2521Q.0048,177.9389.1216,179.6016Z"/><path class="cls-5" d="M81.465,77.1823c-83.3679,48.1324-106.56,112.961-51.774,144.7991,22.5718,13.1172,54.8781,18.5758,90.8838,17.1024l225.0656-8.38-73.4218-33.9786c2.5607-1.3883,5.1126-2.8118,7.6216-4.26,83.3766-48.1374,106.5513-112.966,51.7739-144.7993C276.828,15.8279,164.8414,29.0448,81.465,77.1823Z"/><path class="cls-6" d="M154.2041,31.0979a95.7239,95.7239,0,0,0-6.1772,8.7105c-1.5273,2.2546-2.1684,5.1937-3.2051,7.8371a12.5064,12.5064,0,0,1-2.35,3.9527A8.8877,8.8877,0,0,0,140.44,58.879c.4252,2.9,1.2814,7.372,2.0674,11.2881,1.0412,5.187,6.3117,7.2273,9.4179,3.5075a4.7847,4.7847,0,0,0,.58-.8563c1.2985-2.5046,2.0217-1.8067,3.3377-4.2168,2.3287-4.2651,7.7636-7.6406,11.9506-7.6585,3.6739-.0156,6.9741-1.9477,10.0426-4.3559a15.8842,15.8842,0,0,0,4.9509-9.3481c.4256-3.6993,1.8009-7.6792,1.1183-11.3136-.6638-3.5348-4.68-7.3917-5.5805-10.8475-.429-1.647-7.3453-5.5454-9.4906-5.4022-.6858.0458,6.306,3.0006,5.6907,3.3735l-1.1318.6859c-3.2259,1.9551-5.3039-6.2416-8.725-5.0189C158.6311,20.8738,158.7964,25.7859,154.2041,31.0979Z"/><path class="cls-7" d="M195.3639,372.19c-.3409-.4311-5.3789-6.6588-7.1245-10.4781a39.17,39.17,0,0,1-1.7677-5.518c-.4447-2.7783-1.2785-4.314,4.5506-9.5143,9.5324-8.5046,27.5509,23.27,27.5509,23.27l2.6012,8.1015c.6,1.4086-.33,3.2783-1.528,4.41l-.7385.4045c-5.0428,2.3149-8.44,1.763-11.231-.1086C202.8883,379.5461,201.0856,379.4277,195.3639,372.19Z"/><path class="cls-7" d="M195.0572,369.4662c-.3427-.436-14.9882-18.3736-6.0333-23.9942,7.89-4.9522,13.999,1.8645,19.38,9.36,1.5876,2.2114,5.274,6.8908,6.6716,8.3947a32.3734,32.3734,0,0,1,3.4734,6.35l1.4578,6.4328c.5543,1.3752-1.8142.5542-3.07,1.668l-2.5363-5.4464c-2.429,2.1543-3.0916,9.76-5.9676,7.8817C203.4986,376.89,200.811,376.7839,195.0572,369.4662Z"/><path class="cls-7" d="M204.8263,345.3357c-2.9345,4.3541-10.6774,5.4626-14.4991,1.5293.4785,2.5092.9943,5.0084,1.572,7.4909,2.3546,10.116,16.5841,7.167,14.2208-2.987C205.654,349.3671,205.2273,347.3548,204.8263,345.3357Z"/><path class="cls-7" d="M259.2985,358.1779c-.47-.1487-5.3456-3.249-5.7855-3.3885-.6742-.2138-7.34-2.69-8.4039-3.1367-2.24-.94-7.3911-1.1609-5.8649-8.2572,2.2333-10.3836,30.4858,2.5919,30.4858,2.5919l9.6989,5.9394a3.1826,3.1826,0,0,1,1.5379,3.3073h0c-.3948,2.5035-3.2648,4.6334-6.2132,4.5923C269.6948,359.7558,267.1915,360.6761,259.2985,358.1779Z"/><path class="cls-7" d="M258.4869,355.1746c-.4508-.1666-4.9762-3.3986-5.3979-3.5547-.6463-.2393-8.3062-2.8128-9.3157-3.2957-2.1256-1.0169-7.0789-2.129-4.89-8.9114,3.2023-9.9244,31.0874,4.4894,31.0874,4.4894l9.0244,6.2093a2.9186,2.9186,0,0,1,1.2045,3.27h0c-.63,2.4-3.6722,4.3183-6.5842,4.1355C268.6184,357.2035,266.0543,357.9713,258.4869,355.1746Z"/><path class="cls-7" d="M268.2933,357.3609c1.3049.028,4.0647.0693,5.616.1667a6.1735,6.1735,0,0,0,6.29-4.1459,2.9186,2.9186,0,0,0-1.2045-3.27l-4.4044-3.03C271.1869,348.0446,268.872,351.6244,268.2933,357.3609Z"/><path class="cls-7" d="M253.9037,326.7483c-3.4077,4.086-11.4178,4.5223-14.9478.2723.2514,2.5421.5418,5.0774.8969,7.6013,1.4477,10.2854,16.2543,8.5748,14.8014-1.7491C254.3676,330.8376,254.1222,328.7953,253.9037,326.7483Z"/><path class="cls-8" d="M235.8809,160.4054s14.3213,6.2305,15.6346,6.946S262.5,185.4275,262.5,185.4275l-10.0679,6.5458-5.319-7.5193-10.1525-2.89-8.21-11.1262Z"/><path class="cls-9" d="M131.7146,192.89s-2.2037,22.1956-1.7875,30.3909c.0907,1.7855,5.3632,14.8378,13.7653,18.2347s29.8941,16.0283,29.8941,16.0283l6.4244,45.0417,5.5564,48.4854,24.7161,1.1812,5.2744-104.3012s-1.7178-4.9907-3.5469-10.032c-2.2539-6.2123-20.5-27.3334-20.5-27.3334l-6.3439-18.9469Z"/><path class="cls-10" d="M206.2248,183.6606s46.2822,36.5135,50.304,41.0725,2.8843,13.3274,2.8843,13.3274l.7572,95.4724-26.0793.2423-8.58-66.19-4.5049-23.1033-43.3284-38.23-7.2654-14.2681Z"/><path class="cls-5" d="M142.19,69.4811c14.1109-7.4383,48.503-18.1793,48.503-18.1793l16.0979,14.24-4.1621,81.2433,1.9383,42.8953s-31.4436,18.4179-45.9841,17.4485c-12.1171-.97-23.0833-7.27-23.0833-7.27l4.6651-41.9253-6.3175-73.1566A15.7535,15.7535,0,0,1,142.19,69.4811Z"/><path class="cls-11" d="M148.6762,66.106s24.3347,12.9792,22.8347,40.9792c-1.016,18.9659,6.6338,91.7954.9249,104.1629,0,0-31.5347.4636-42.9249-4.6629l8.4718-44.2907-5.2681-82.2864a8.4875,8.4875,0,0,1,4.6086-8.1009Z"/><path class="cls-12" d="M191.9648,48.23l-8.5426,1.9812s13.2076,40.6528,14.2983,46.651,1.6357,105.2365,1.6357,105.2365,11.9352-7.33,13.7532-16.66L204.5666,116.25,206.79,65.5414Z"/><path class="cls-8" d="M181.6519,181.031l10.8719-1.3024s7.0222,4.3566,8.0963,5.26,4.18,8.0683,4.18,8.0683l-8.57,3.7193L188.723,191.14l-7.3183,1.9718-3.0709-.0423-4.7473-4.2449L178.74,180.07Z"/><path class="cls-13" d="M125.5109,77.5852s-12.5666,72.4267-10.7514,83.3183,58.6477,28.41,58.6477,28.41l5.4524-9.2646-35.5036-28.825-1.7806-81.49Z"/><path class="cls-9" d="M184.3887,60.7412s-4.0173,5.2568-6.3478,6.1829-32.0149-15.56-26.71-40.7746c3.36-15.9689,33.61-9.1934,33.61-9.1934Z"/><path class="cls-8" d="M171.58,81.3719l1.2458.36a7.9856,7.9856,0,0,0,9.8589-5.44l6.8516-23.7227a7.9857,7.9857,0,0,0-5.44-9.8589l-1.2457-.36a7.9858,7.9858,0,0,0-9.859,5.44l-9.9349,21.8275C161.8416,73.8248,167.373,80.1567,171.58,81.3719Z"/><path class="cls-14" d="M185.8419,66.4464A21.8,21.8,0,0,1,169.78,54.7684s4.8155,15.936,14.1458,18.3113Z"/><path class="cls-5" d="M176.98,82.4405l-7.7843,10.5857s-32.0407-16.5536-19.0179-28.7743L167.002,60.95S158.92,71.23,176.98,82.4405Z"/><path class="cls-5" d="M185.8419,66.4464S183.14,78.45,176.98,82.4405l9.7475,6.4541s14.314-13.0162,5.856-31.2179Z"/><path class="cls-8" d="M174.4365,11.5137c5.0355-6.3695,11.3274-7.1,16.4023-2.8646,5.9188-1.9371,12.0994,1.975,15.7,11.037,5.0142,12.6181,3.125,30.3778-4.219,39.6676-5.1309,6.49-5.9725,10.7021-18.8471,7.3661-8.9368-3.6807-13.93-6.8582-17.6256-16.1591C160.8332,37.9428,167.0922,20.8036,174.4365,11.5137Z"/><path class="cls-6" d="M171.9655,24.0321c4.5711-6.22,20.2591,3.6493,35.9354,14.9242,7.2383.4081,5.9478-10.8391,1.8487-17.85A42.3944,42.3944,0,0,0,186.7584,2.67L180.1412.4C168.12-2.7314,153.7571,13.2906,151.6783,21.45l8.02.5443C157.62,30.153,163.8062,21.9533,171.9655,24.0321Z"/><path class="cls-14" d="M161.5483,45.49c-.2021,3.9183,1.9487,7.2133,4.804,7.36s5.3336-2.9111,5.5357-6.8293-1.9487-7.2133-4.804-7.36S161.75,41.5713,161.5483,45.49Z"/><path class="cls-6" d="M180.3077,19.7913s10.2032,1.7939-22.4634,32.4606c0,0-16.7756-14.5361-.4869-38.7106,14.3574-21.3081,37.64-5.2785,37.64-5.2785Z"/><path class="cls-14" d="M196.943,53.8717c-.2118-1.3008-1.2579-7.874-.997-9.5589l2.0325.3148c-.1632,1.0538.523,6.0262.9943,8.9128Z"/><path class="cls-15" d="M219.7717,126.8717l-3.2762-42.2824s-1.4256-14.0917-9.705-19.0479-6.78,14.5438-6.78,14.5438l1.4544,4.3631-5.6875-.0533s2.6381,49.5995,4.66,54.7075,28.3129,31.3356,28.3129,31.3356l7.13-10.0327Z"/><path class="cls-16" d="M150.2922,211.1375l.2728-2.0118,2.4639,1.335.72-1.2087,69.6836-29.1453a3.4429,3.4429,0,0,1,3.0453.5192l25.8674,19.7077.0576-.4491,4.9006,2.7368-.2743,2.14-.0355-.0045a1.0207,1.0207,0,0,1-.5628.49l-72.5138,30.3289a3.4434,3.4434,0,0,1-3.0454-.5192l-29.96-22.8257a1.2669,1.2669,0,0,1-.6172-1.0932Z"/><path class="cls-17" d="M184.2276,233.4516l72.514-30.329c.8394-.351.8423-1.1591.0067-1.7957l-29.96-22.8257a3.4436,3.4436,0,0,0-3.0453-.5193l-72.5139,30.329c-.8395.3511-.8424,1.1592-.0068,1.7957l29.96,22.8258A3.4436,3.4436,0,0,0,184.2276,233.4516Z"/><path class="cls-5" d="M191.5707,189.803a7.392,7.392,0,0,1,3.7125-4.3038l71.9158-29.505a1.69,1.69,0,0,1,1.5133-.0463l.0037-.0017.009.009a.9584.9584,0,0,1,.3117.3118l1.9212,2.6153-1.9949-.438-11.65,40.3761a7.3914,7.3914,0,0,1-3.7126,4.3037L185.599,231.0232l-2.341,2.0381-.3272.5335c-1.3175.1127-4.1082-2.46-4.1082-2.46Z"/><path class="cls-18" d="M183.7441,235.4206l71.9157-29.505a7.3913,7.3913,0,0,0,3.7126-4.3038L271.1508,160.79c.5026-1.7419-.3447-2.6391-1.8925-2.0042l-71.9157,29.505a7.3914,7.3914,0,0,0-3.7126,4.3037l-11.7784,40.8219C181.349,235.1584,182.1963,236.0556,183.7441,235.4206Z"/><path class="cls-5" d="M224.5335,199.663c-.6257,2.1687,1.3178,2.9213,4.3407,1.681s5.9808-4.0036,6.6065-6.1722-1.3176-2.9211-4.3406-1.681S225.1593,197.4946,224.5335,199.663Z"/></g></g></svg>